<?xml version="1.0" encoding="utf-8"?>
<!-- Generator: Adobe Illustrator 20.0.0, SVG Export Plug-In . SVG Version: 6.00 Build 0)  -->
<svg version="1.1" id="Layer_1" xmlns="http://www.w3.org/2000/svg" xmlns:xlink="http://www.w3.org/1999/xlink" x="0px" y="0px"
	 viewBox="0 0 100 100" style="enable-background:new 0 0 100 100;" xml:space="preserve">
<path d="M50,0C22.4,0,0,23,0,51.3c0,22.6,14.3,41.9,34.2,48.6c2.5,0.5,3.4-1.1,3.4-2.5c0-1.2,0-5.3-0.1-9.5
	c-13.9,3.1-16.8-6.1-16.8-6.1c-2.3-5.9-5.6-7.5-5.6-7.5c-4.5-3.2,0.3-3.1,0.3-3.1c5,0.4,7.7,5.3,7.7,5.3c4.5,7.8,11.7,5.6,14.6,4.3
	c0.5-3.3,1.7-5.6,3.2-6.9c-11.1-1.3-22.8-5.7-22.8-25.3c0-5.6,2-10.2,5.2-13.8c-0.5-1.3-2.2-6.5,0.5-13.6c0,0,4.2-1.4,13.8,5.3
	c4-1.1,8.3-1.7,12.5-1.7c4.2,0,8.5,0.6,12.5,1.7c9.5-6.6,13.7-5.3,13.7-5.3c2.7,7.1,1,12.3,0.5,13.6c3.2,3.6,5.1,8.2,5.1,13.8
	c0,19.7-11.7,24-22.8,25.3c1.8,1.6,3.4,4.7,3.4,9.5c0,6.9-0.1,12.4-0.1,14.1c0,1.4,0.9,3,3.4,2.5c19.9-6.8,34.2-26,34.2-48.6
	C100,23,77.6,0,50,0L50,0L50,0z"/>
</svg>
