<svg xmlns="http://www.w3.org/2000/svg" viewBox="0 0 319806 333374" shape-rendering="geometricPrecision" text-rendering="geometricPrecision" image-rendering="optimizeQuality" fill-rule="evenodd" clip-rule="evenodd"><path d="M249821 296430l-9049-1619-4482 8038c-3267 4048-5320-2602-6244-4915l-8731-16479c2023-694 4452-2718 6938-4973 4973 116 9627-752 13039-5117l10061 19428 867 1850c694 2429 318 4019-2371 3787h-29zM77332 269752c14836-19487 27702-10495 45659 2056 407 284 801 560 2783 1936 6061 4207 12423-1414 18490-6774 2686-2373 5326-4706 8109-6479l4215 6615c-2248 1432-4665 3569-7124 5741-8323 7353-17051 15063-28151 7358l-2815-1967c-14355-10033-24640-17221-34921-3717l-6245-4769zM245798 8578c-4020 4483-6280 9007-7160 13612-975 5100-295 10450 1533 16064l1820 5590H48622v255556h-17c7 9317 1975 16118 6076 20181 3986 3950 10354 5518 19293 4515l467-33h195372V34944l17-183c493-11105-1996-17627-6449-21270-4181-3421-10362-4662-17584-4911zM40078 43844H-1l166-4422c338-8987 2138-17039 6081-23719C10294 8843 16502 3534 25554 268L26989 1h227137l-696 712c5925 887 11160 2735 15358 6169 6482 5303 10151 13984 9560 28061h9v253880h30318c3303 0 561 17 1557 11 4451-24 6450-35 8300 2364 1426 1848 1343 3492 1193 6477-48 969-110 2185-110 4063 0 15028-5184 23602-13934 28052-7723 3928-18005 4222-29779 2816H74598c-11503 1232-20073-1186-25926-6985-5790-5738-8570-14562-8579-26221h-16V43844zm190182-23256c786-4108 2359-8120 4864-12044H27708c-6615 2541-11160 6483-14119 11497-2541 4304-3980 9465-4599 15259h221568c-1040-4981-1222-9875-297-14712zm48098 276779v26945c9587 1039 17746 771 23452-2131 5816-2958 9262-9166 9262-20443 0-1621 79-3203 143-4464 49-978 1077-220 577-869-715-927 20 932-1527 940-1957 11 575 22-1590 22h-30318zM80455 86627c-2359 0-4272-1912-4272-4272 0-2359 1913-4272 4272-4272h123343c2359 0 4272 1912 4272 4272 0 2359-1913 4272-4272 4272H80455zm0 43729c-2373 0-4297-1905-4297-4254 0-2350 1924-4254 4297-4254h151291c2373 0 4297 1905 4297 4254s-1924 4254-4297 4254H80455zm0 43765c-2359 0-4272-1912-4272-4272 0-2359 1913-4272 4272-4272h120911c2359 0 4272 1913 4272 4272s-1913 4272-4272 4272H80455zm0 43769c-2348 0-4251-1923-4251-4294 0-2372 1903-4294 4251-4294h62582c2348 0 4251 1923 4251 4294 0 2372-1903 4294-4251 4294H80455zm135800-10128c1706-87 3036 520 4395 1388 1705 1099 3643 3238 6042 4597 3354 1908 9598-723 12779 4018 1850 2776 1937 4915 2082 7054 145 2312 549 4423 2920 7546 3903 5175 4712 8615 2718 12200-1388 2457-4279 3816-4944 5349-1416 3296 145 5782-1792 9627-1359 2659-3441 4423-6216 5320-2342 752-4712-347-6591 462-3296 1388-5725 4597-8355 5436-1012 318-2024 462-3036 462s-2024-145-3036-462c-2631-810-5059-4048-8355-5436-1879-780-4221 289-6591-462-2776-896-4886-2660-6216-5320-1937-3845-376-6331-1792-9627-665-1561-3556-2920-4944-5349-2024-3585-1214-7025 2718-12200 2370-3122 2775-5262 2920-7546 145-2140 231-4308 2082-7054 3180-4741 9424-2081 12778-4018 2400-1359 4337-3528 6042-4597 1358-867 2689-1445 4394-1388zm0 12721c10495 0 18994 8499 18994 18994s-8500 18994-18994 18994c-10495 0-18994-8499-18994-18994s8500-18994 18994-18994zm-33565 75948l9049-1619 4481 8038c3267 4048 5320-2602 6244-4915l8731-16479c-2024-694-4453-2718-6939-4973-4973 116-9627-752-13039-5117l-10061 19428-867 1851c-694 2429-318 4019 2371 3787h29z"/></svg>