<?xml version="1.0" encoding="utf-8"?>
<!-- Generator: Adobe Illustrator 20.0.0, SVG Export Plug-In . SVG Version: 6.00 Build 0)  -->
<svg version="1.1" id="Layer_1" xmlns="http://www.w3.org/2000/svg" xmlns:xlink="http://www.w3.org/1999/xlink" x="0px" y="0px"
	 viewBox="0 0 100 100" style="enable-background:new 0 0 100 100;" xml:space="preserve">
<style type="text/css">
	.st0{fill:#FFFFFF;}
</style>
<g>
	<g>
		<path d="M88,100H12c-6.6,0-12-5.4-12-12V12C0,5.4,5.4,0,12,0h76c6.6,0,12,5.4,12,12v76C100,94.6,94.6,100,88,100z"/>
	</g>
	<g>
		<g>
			<rect x="12.5" y="35.4" class="st0" width="16.4" height="51.1"/>
		</g>
		<g>
			<ellipse class="st0" cx="20.7" cy="22.5" rx="8.2" ry="8.9"/>
		</g>
	</g>
	<g>
		<g>
			<rect x="38.1" y="35.4" class="st0" width="16.4" height="51.1"/>
		</g>
		<path class="st0" d="M88.6,49.9c-0.2-0.6-0.3-1.1-0.3-1.7c-0.4-1-0.7-2-0.9-3.1c0-0.1,0-0.2,0-0.2c-0.1-0.2-0.2-0.5-0.3-0.8
			c-0.5-0.8-0.9-1.7-1.5-2.4c-1-1.4-2.4-2.6-3.7-3.8c0,0,0,0,0,0c-1.6-0.8-3.9-1.8-6-2.5c-2.3,0-4.8,0-7,0c-0.6,0.2-1.3,0.3-2,0.3
			c-0.4,0.1-0.8,0.2-1.3,0.2c-0.2,0.1-0.5,0.2-0.7,0.3c-0.4,0.2-0.9,0.4-1.4,0.5c-0.5,0.3-1.1,0.5-1.8,0.7c-0.3,0.1-0.7,0.2-1,0.3
			c-0.5,0.4-1.1,0.8-1.8,1.1c-3.1,2.5-5.5,5.6-5.5,5.6v10.5c3.1-3.6,6-5.5,8.5-6.4c0.9-0.5,2-0.9,3.4-0.9c0.1,0,0.2,0,0.3,0
			c0.1,0,0.2,0,0.3,0c0.1,0,0.2,0,0.2,0c0.1,0,0.3,0,0.4,0c0.1,0,0.1,0,0.2,0c0.1,0,0.1,0,0.2,0c1.7,0,3,0.5,4,1.3
			c0.8,0.4,1.5,1,2,1.7c1.3,1.4,1.9,3.3,1.6,5.2l0,1.5l0.1,29.4h13.9C88.4,86.4,88.7,62.5,88.6,49.9z"/>
	</g>
</g>
</svg>
