<?xml version="1.0" encoding="utf-8"?>
<!-- Generator: Adobe Illustrator 20.0.0, SVG Export Plug-In . SVG Version: 6.00 Build 0)  -->
<svg version="1.1" id="Layer_1" xmlns="http://www.w3.org/2000/svg" xmlns:xlink="http://www.w3.org/1999/xlink" x="0px" y="0px"
	 viewBox="0 0 1280 680" style="enable-background:new 0 0 1280 680;" xml:space="preserve">
<style type="text/css">
	.st0{fill:url(#SVGID_1_);stroke:#FFFFFF;stroke-miterlimit:10;}
	.st1{opacity:0.26;fill:#6C63FF;enable-background:new    ;}
	.st2{opacity:0.31;fill:#6C63FF;enable-background:new    ;}
	.st3{opacity:0.21;fill:#FFFFFF;enable-background:new    ;}
	.st4{opacity:0.31;}
	.st5{fill:#3F3D56;}
	.st6{fill:#6C63FF;}
	.st7{opacity:0.1;enable-background:new    ;}
	.st8{opacity:0.29;}
	.st9{opacity:0.1;fill:#6C63FF;enable-background:new    ;}
	.st10{opacity:0.29;fill:#6C63FF;enable-background:new    ;}
	.st11{opacity:0.25;fill:#6C63FF;enable-background:new    ;}
	.st12{opacity:0.2;fill:#6C63FF;enable-background:new    ;}
	.st13{fill:#1A1A1A;}
	.st14{fill:#42210B;}
	.st15{fill:#FBBEBE;}
	.st16{fill:#F2F2F2;}
	.st17{fill:#E6E6E6;}
	.st18{fill-opacity:0;}
	.st19{fill:#FFFFFF;}
	.st20{fill:#464A5F;}
	.st21{fill:#2E3192;}
	.st22{fill:#9C9CA1;}
	.st23{fill:#939498;}
	.st24{opacity:0.1;}
	.st25{opacity:0.67;fill:url(#SVGID_2_);enable-background:new    ;}
	.st26{opacity:0.89;fill:url(#SVGID_3_);enable-background:new    ;}
	.st27{opacity:0.67;fill:url(#SVGID_4_);enable-background:new    ;}
	.st28{opacity:0.22;fill:url(#SVGID_5_);enable-background:new    ;}
	.st29{opacity:0.22;fill:url(#SVGID_6_);enable-background:new    ;}
</style>
<linearGradient id="SVGID_1_" gradientUnits="userSpaceOnUse" x1="781.5179" y1="-16.2052" x2="1210.1107" y2="726.1393" gradientTransform="matrix(1 0 0 -1 0 680)">
	<stop  offset="0.2687" style="stop-color:#A5408F"/>
	<stop  offset="0.7711" style="stop-color:#4B003F"/>
</linearGradient>
<path class="st0" d="M703-5.5h81.6c0,0,14.6,35.4,50.9,36.8s339.3,0.2,339.3,0.2s42.8,11,60.9-37h44.9v686H754.3
	c0,0,19-241.5,249.5-241.5c0,0-108.8-21-72.5-112.2c0,0-244.4,25.7-234.1-333.1"/>
<path class="st1" d="M1222.7,659.9l-42.9-67.5c-0.4-0.6-1.2-0.8-1.9-0.5c-0.2,0.1-0.4,0.3-0.5,0.5l-42.9,67.5
	c-0.4,0.6-0.2,1.3,0.5,1.7c0.2,0.1,0.5,0.2,0.7,0.2h12.8c0.8,0,1.4,0.6,1.4,1.2v14.4c0,0.7,0.6,1.2,1.4,1.2h16.7
	c0.8,0,1.4-0.6,1.4-1.2v-7c0-0.7,0.6-1.2,1.4-1.2h15.9c0.8,0,1.4,0.6,1.4,1.2v7c0,0.7,0.6,1.2,1.4,1.2h16.7c0.8,0,1.4-0.6,1.4-1.2
	V663c0-0.7,0.6-1.2,1.4-1.2h12.8c0.8,0,1.4-0.6,1.4-1.2C1222.9,660.3,1222.8,660.1,1222.7,659.9z M1162.9,667.4
	c-0.3,0.2-0.6,0.4-1,0.4h-6c-0.8,0-1.4-0.6-1.4-1.2c0-0.7,0.6-1.2,1.4-1.2h6c0.8,0,1.4,0.6,1.4,1.2
	C1163.3,666.8,1163.2,667.2,1162.9,667.4L1162.9,667.4z M1202.3,667.4c-0.3,0.2-0.6,0.4-1,0.4h-6c-0.8,0-1.4-0.6-1.4-1.2
	c0-0.7,0.6-1.2,1.4-1.2h6c0.8,0,1.4,0.6,1.4,1.2C1202.7,666.8,1202.6,667.2,1202.3,667.4L1202.3,667.4z"/>
<path class="st2" d="M957.7,660.5L914.8,593c-0.4-0.6-1.2-0.8-1.9-0.5c-0.2,0.1-0.4,0.3-0.5,0.5l-37,58.3
	c4.6,5.3,9.8,10.2,15.5,14.5h6c0.8,0,1.4,0.6,1.4,1.2c0,0.7-0.6,1.2-1.4,1.2h-2.5c3.1,2.1,6.4,4,9.9,5.6v-2.9c0-0.7,0.6-1.2,1.4-1.2
	h15.9c0.8,0,1.4,0.6,1.4,1.2v7c0,0.2,0,0.4,0.1,0.5c0.2,0.4,0.7,0.7,1.2,0.7H941c0.4,0,0.8-0.2,1.1-0.5c0.2-0.2,0.3-0.5,0.3-0.8
	v-14.4c0-0.7,0.6-1.2,1.4-1.2h12.8c0.8,0,1.4-0.6,1.3-1.3C957.9,660.9,957.8,660.7,957.7,660.5z M929.3,666.2c0.3-0.2,0.6-0.4,1-0.4
	h6c0.8,0,1.4,0.6,1.4,1.2c0,0.7-0.6,1.2-1.4,1.2h-6c-0.8,0-1.4-0.6-1.4-1.2C928.9,666.8,929.1,666.4,929.3,666.2L929.3,666.2z
	 M902.4,641.2c-0.8,0-1.4-0.6-1.4-1.2v-9.4c0-0.7,0.6-1.2,1.4-1.2h22.4c0.8,0,1.4,0.6,1.4,1.2v9.4c0,0.7-0.6,1.2-1.4,1.2H902.4z"/>
<path class="st3" d="M1127.2,539.3h-53v-10.4c0-1.4-1.2-2.5-2.7-2.5l0,0h-15.6v-11.1c0-0.9-0.8-1.6-1.7-1.6H1034
	c-1,0-1.7,0.7-1.7,1.6v11.1H1014c-1.5,0-2.7,1.1-2.7,2.5l0,0v10.4h-50.6c-0.3,0-0.6,0.2-0.6,0.5v138.4c0,0.3,0.2,0.5,0.6,0.5h33.6
	c0.3,0,0.6-0.2,0.6-0.5v-18.6c0-0.3,0.3-0.5,0.6-0.5h14.2c0.3,0,0.6,0.2,0.6,0.5v18.6c0,0.3,0.2,0.5,0.6,0.5h66.4
	c0.3,0,0.6-0.2,0.6-0.5v-18.6c0-0.3,0.2-0.5,0.6-0.5h14.2c0.3,0,0.6,0.2,0.6,0.5v18.6c0,0.3,0.3,0.5,0.6,0.5h33.6
	c0.3,0,0.6-0.2,0.6-0.5V539.8C1127.7,539.5,1127.5,539.3,1127.2,539.3z M988.8,652.6c0,0.3-0.2,0.5-0.6,0.5l0,0h-20.8
	c-0.3,0-0.6-0.2-0.6-0.5l0,0v-6.4c0-0.3,0.2-0.5,0.6-0.5h20.8c0.3,0,0.6,0.2,0.6,0.5V652.6z M988.8,636c0,0.3-0.2,0.5-0.5,0.5l0,0
	h-20.8c-0.3,0-0.6-0.2-0.6-0.5l0,0v-6.4c0-0.3,0.2-0.5,0.5-0.5l0,0h20.8c0.3,0,0.6,0.2,0.6,0.5l0,0V636z M988.8,619.3
	c0,0.3-0.2,0.5-0.6,0.5h-20.8c-0.3,0-0.6-0.2-0.6-0.5v-6.4c0-0.3,0.2-0.5,0.6-0.5h20.8c0.3,0,0.6,0.2,0.6,0.5V619.3z M988.8,602.7
	c0,0.3-0.2,0.5-0.5,0.5l0,0h-20.8c-0.3,0-0.6-0.2-0.6-0.5l0,0v-6.4c0-0.3,0.2-0.5,0.5-0.5l0,0h20.8c0.3,0,0.6,0.2,0.6,0.5l0,0V602.7
	z M988.8,586c0,0.3-0.2,0.5-0.6,0.5h-20.8c-0.3,0-0.6-0.2-0.6-0.5v-6.4c0-0.3,0.2-0.5,0.6-0.5l0,0h20.8c0.3,0,0.6,0.2,0.6,0.5l0,0
	V586z M988.8,569.4c0,0.3-0.2,0.5-0.6,0.5l0,0h-20.8c-0.3,0-0.6-0.2-0.6-0.5l0,0V563c0-0.3,0.2-0.5,0.6-0.5h20.8
	c0.3,0,0.6,0.2,0.6,0.5V569.4z M988.8,552.7c0,0.3-0.2,0.5-0.5,0.5l0,0h-20.8c-0.3,0-0.6-0.2-0.6-0.5l0,0v-6.4
	c0-0.3,0.2-0.5,0.5-0.5l0,0h20.8c0.3,0,0.6,0.2,0.6,0.5l0,0V552.7z M1038,652.6c0,0.3-0.2,0.5-0.6,0.5l0,0h-20.8
	c-0.3,0-0.6-0.2-0.6-0.5v-6.4c0-0.3,0.3-0.5,0.6-0.5h20.8c0.3,0,0.6,0.2,0.6,0.5V652.6z M1038,636c0,0.3-0.2,0.5-0.5,0.5l0,0h-20.8
	c-0.3,0-0.6-0.2-0.6-0.5v-6.4c0-0.3,0.2-0.5,0.6-0.5h20.8c0.3,0,0.6,0.2,0.6,0.5l0,0L1038,636z M1038,619.3c0,0.3-0.2,0.5-0.6,0.5
	h-20.8c-0.3,0-0.6-0.2-0.6-0.5v-6.4c0-0.3,0.3-0.5,0.6-0.5h20.8c0.3,0,0.6,0.2,0.6,0.5V619.3z M1038,602.7c0,0.3-0.2,0.5-0.5,0.5
	l0,0h-20.8c-0.3,0-0.6-0.2-0.6-0.5v-6.4c0-0.3,0.2-0.5,0.6-0.5h20.8c0.3,0,0.6,0.2,0.6,0.5l0,0L1038,602.7z M1038,586
	c0,0.3-0.2,0.5-0.6,0.5h-20.8c-0.3,0-0.6-0.2-0.6-0.5v-6.4c0-0.3,0.3-0.5,0.6-0.5h20.8c0.3,0,0.6,0.2,0.6,0.5l0,0V586z M1038,569.4
	c0,0.3-0.2,0.5-0.6,0.5l0,0h-20.8c-0.3,0-0.6-0.2-0.6-0.5V563c0-0.3,0.3-0.5,0.6-0.5h20.8c0.3,0,0.6,0.2,0.6,0.5V569.4z M1038,552.7
	c0,0.3-0.2,0.5-0.5,0.5l0,0h-20.8c-0.3,0-0.6-0.2-0.6-0.5v-6.4c0-0.3,0.2-0.5,0.6-0.5h20.8c0.3,0,0.6,0.2,0.6,0.5l0,0L1038,552.7z
	 M1071.6,652.6c0,0.3-0.2,0.5-0.6,0.5l0,0h-20.8c-0.3,0-0.6-0.2-0.6-0.5v-6.4c0-0.3,0.3-0.5,0.6-0.5h20.8c0.3,0,0.6,0.2,0.6,0.5
	V652.6z M1071.6,636c0,0.3-0.2,0.5-0.5,0.5l0,0h-20.8c-0.3,0-0.6-0.2-0.6-0.5v-6.4c0-0.3,0.2-0.5,0.6-0.5h20.8
	c0.3,0,0.6,0.2,0.6,0.5l0,0L1071.6,636L1071.6,636z M1071.6,619.3c0,0.3-0.2,0.5-0.6,0.5h-20.8c-0.3,0-0.6-0.2-0.6-0.5v-6.4
	c0-0.3,0.3-0.5,0.6-0.5h20.8c0.3,0,0.6,0.2,0.6,0.5V619.3z M1071.6,602.7c0,0.3-0.2,0.5-0.5,0.5l0,0h-20.8c-0.3,0-0.6-0.2-0.6-0.5
	v-6.4c0-0.3,0.2-0.5,0.6-0.5h20.8c0.3,0,0.6,0.2,0.6,0.5l0,0L1071.6,602.7L1071.6,602.7z M1071.6,586c0,0.3-0.2,0.5-0.6,0.5h-20.8
	c-0.3,0-0.6-0.2-0.6-0.5v-6.4c0-0.3,0.3-0.5,0.6-0.5h20.8c0.3,0,0.6,0.2,0.6,0.5l0,0V586z M1071.6,569.4c0,0.3-0.2,0.5-0.6,0.5l0,0
	h-20.8c-0.3,0-0.6-0.2-0.6-0.5V563c0-0.3,0.3-0.5,0.6-0.5h20.8c0.3,0,0.6,0.2,0.6,0.5V569.4z M1071.6,552.7c0,0.3-0.2,0.5-0.5,0.5
	l0,0h-20.8c-0.3,0-0.6-0.2-0.6-0.5v-6.4c0-0.3,0.2-0.5,0.6-0.5h20.8c0.3,0,0.6,0.2,0.6,0.5l0,0L1071.6,552.7L1071.6,552.7z
	 M1120.9,652.6c0,0.3-0.3,0.5-0.6,0.5h-20.8c-0.3,0-0.6-0.2-0.6-0.5l0,0v-6.4c0-0.3,0.2-0.5,0.6-0.5h20.8c0.3,0,0.6,0.2,0.6,0.5
	V652.6z M1120.9,636c0,0.3-0.2,0.5-0.6,0.5h-20.8c-0.3,0-0.6-0.2-0.6-0.5l0,0v-6.4c0-0.3,0.2-0.5,0.5-0.5l0,0h20.8
	c0.3,0,0.6,0.2,0.6,0.5L1120.9,636z M1120.9,619.3c0,0.3-0.3,0.5-0.6,0.5h-20.8c-0.3,0-0.6-0.2-0.6-0.5v-6.4c0-0.3,0.2-0.5,0.6-0.5
	h20.8c0.3,0,0.6,0.2,0.6,0.5V619.3z M1120.9,602.7c0,0.3-0.2,0.5-0.6,0.5h-20.8c-0.3,0-0.6-0.2-0.6-0.5l0,0v-6.4
	c0-0.3,0.2-0.5,0.5-0.5l0,0h20.8c0.3,0,0.6,0.2,0.6,0.5L1120.9,602.7z M1120.9,586c0,0.3-0.3,0.5-0.6,0.5h-20.8
	c-0.3,0-0.6-0.2-0.6-0.5v-6.4c0-0.3,0.2-0.5,0.6-0.5l0,0h20.8c0.3,0,0.6,0.2,0.6,0.5V586z M1120.9,569.4c0,0.3-0.3,0.5-0.6,0.5
	h-20.8c-0.3,0-0.6-0.2-0.6-0.5l0,0V563c0-0.3,0.2-0.5,0.6-0.5h20.8c0.3,0,0.6,0.2,0.6,0.5V569.4z M1120.9,552.7
	c0,0.3-0.2,0.5-0.6,0.5h-20.8c-0.3,0-0.6-0.2-0.6-0.5l0,0v-6.4c0-0.3,0.2-0.5,0.5-0.5l0,0h20.8c0.3,0,0.6,0.2,0.6,0.5L1120.9,552.7z
	"/>
<g class="st4">
	<path class="st5" d="M873.3,632.3c0,1.6-0.4,3.2-1.3,4.6c1.8,2.9,1.8,6.4,0,9.3c0.5,0.7,0.8,1.5,1,2.3c-4.5-5.4-8.7-11-12.4-16.9
		l0,0c0.1-1.4,0.5-2.8,1.3-4c-0.9-1.4-1.3-3-1.3-4.6c0-1.1,0.2-2.2,0.6-3.2c0.2-0.5,0.4-1,0.7-1.4c1.2-1.8,3-3,5.1-3s3.9,1.2,5.1,3
		c0.3,0.4,0.5,0.9,0.7,1.4c0.4,1.1,0.6,2.2,0.6,3.3c0,1.6-0.4,3.2-1.3,4.6C872.8,629,873.3,630.6,873.3,632.3z"/>
	<ellipse class="st5" cx="866.9" cy="613.7" rx="6.4" ry="7.6"/>
	<ellipse class="st5" cx="866.9" cy="604.4" rx="6.4" ry="7.6"/>
	<path class="st6" d="M897.4,557.9c0,6.2-2.3,12.3-6.6,17.2c10.5,12.1,8.2,29.6-5.1,39.1c-3.8,2.7-8.3,4.6-13,5.4
		c-0.7,0.1-1.5,0.2-2.2,0.3c-2.3,0.3-4.7,0.3-7,0c-0.8-0.1-1.5-0.2-2.3-0.3c-3.3-0.6-6.6-1.6-9.5-3.2c-5.5-10.2-10.3-20.7-14.4-31.5
		c1.1-3.6,2.9-7,5.5-9.9c-6.4-7.4-8.3-17.2-4.9-26.1l23.3,7.1l-21.8-10.3c1-1.8,2.2-3.5,3.5-5.1c-10.5-12.1-8.2-29.6,5.1-39.1
		s32.6-7.4,43,4.7c0.9,1,1.7,2.1,2.4,3.3l-22.5,15l24.4-11.5c3.2,7.1,2.9,15.1-0.6,22.1l-18.2-0.1l16.8,2.5
		c-0.7,1.1-1.5,2.2-2.4,3.2C895.1,545.6,897.4,551.7,897.4,557.9z"/>
	<path class="st7" d="M897.4,592.4c0,13.3-10.4,24.7-24.7,27.3c-0.7,0.1-1.5,0.2-2.2,0.3c-2.3,0.3-4.7,0.3-7,0
		c-0.8-0.1-1.5-0.2-2.3-0.3c-3.3-0.6-6.6-1.6-9.5-3.2c-5.5-10.2-10.3-20.7-14.4-31.5c1.1-3.6,2.9-7,5.5-9.9
		c-4.3-4.9-6.6-11-6.6-17.2c0-3.1,58.8,12.5,54.7,17.2C895.1,580.1,897.4,586.1,897.4,592.4z"/>
</g>
<g class="st8">
	<path class="st5" d="M1242.2,625c-1.2,3.5-2.5,6.9-3.8,10.3c-0.4-1-0.5-2-0.5-3.1C1237.9,628.9,1239.7,626,1242.2,625z"/>
	<path class="st6" d="M1255.1,565.1c0,6.6-1.5,17-4.1,28.9c-2.3,10.5-5.3,20.8-8.7,31c-1.2,3.5-2.5,6.9-3.8,10.3
		c-1.5,3.8-3.1,7.6-4.8,11.1c-15.9-5.3-24.1-21.4-18.3-35.9c1.1-2.7,2.7-5.3,4.7-7.6c-6.4-7.4-8.3-17.3-5-26.2l23.3,7.1l-21.8-10.3
		c1-1.8,2.1-3.5,3.5-5.1c-10.5-12.1-8.1-29.7,5.2-39.2c2.1-1.5,4.4-2.7,6.8-3.7c9.4,5.8,16.5,14.2,20.2,24l-4.1,2.7l4.3-2
		c1.5,4.1,2.3,8.3,2.5,12.5h-1.2l1.2,0.2C1255.1,563.6,1255.1,564.4,1255.1,565.1z"/>
	<path class="st7" d="M1251,594c-2.3,10.5-5.3,20.8-8.7,31c-1.2,3.5-2.5,6.9-3.8,10.3c-1.5,3.8-3.1,7.6-4.8,11.1
		c-15.9-5.3-24.1-21.4-18.3-35.9c1.1-2.7,2.7-5.3,4.7-7.6c-4.3-4.9-6.6-11-6.6-17.3C1213.5,583.8,1234.9,588.8,1251,594z"/>
</g>
<path class="st9" d="M1068.6,441.7c-2.3-0.4-4.7-0.2-6.9,0.7c-2.6,1.1-5.7,1.1-8.3,0c-3.1-1.2-6.7-1.2-9.8,0.2
	c-0.9,0.4-1.8,0.6-2.8,0.6c-4,0-7.3-3.6-8-8.4c0.8-0.5,1.5-1.2,2-1.9c2.3-3.4,5.9-5.6,10-5.6c4,0,7.6,2.2,9.9,5.5
	c1.4,2.1,3.9,3.3,6.6,3.3h0.1C1064.6,436.1,1067.3,438.4,1068.6,441.7z"/>
<path class="st10" d="M1062.5,426.7l-6.4,3.7l3.9-6.4c-1.1-0.8-2.5-1.2-3.9-1.3h-0.1c-0.4,0-0.9,0-1.3-0.1l-2.2,1.3l0.9-1.5
	c-1.5-0.5-2.9-1.4-3.8-2.6l-3.9,2.3l2.5-4.1c-2.3-2.5-5.3-4-8.7-4c-4,0-7.7,2.2-10,5.6c-1.4,2.1-3.9,3.3-6.6,3.2h-0.2
	c-4.5,0-8.1,4.6-8.1,10.3s3.6,10.3,8.1,10.3c1,0,1.9-0.2,2.8-0.6c3.1-1.4,6.7-1.4,9.8-0.2c2.6,1.1,5.7,1.1,8.3,0
	c3.1-1.2,6.7-1.2,9.7,0.2c0.9,0.4,1.8,0.6,2.8,0.6c4.5,0,8.1-4.6,8.1-10.3C1064.2,430.8,1063.7,428.6,1062.5,426.7z"/>
<path class="st9" d="M1153.8,497.8c-1.6-0.3-3.3-0.1-4.9,0.5c-1.9,0.8-4,0.8-5.8,0c-2.2-0.9-4.7-0.8-6.9,0.1c-0.6,0.3-1.3,0.4-2,0.5
	c-2.8,0-5.1-2.5-5.6-5.9c0.6-0.4,1-0.8,1.4-1.4c1.6-2.4,4.1-3.9,7-3.9c2.8,0,5.3,1.5,7,3.9c1,1.4,2.7,2.3,4.6,2.3h0.1
	C1150.9,493.9,1152.8,495.5,1153.8,497.8z"/>
<path class="st11" d="M1162.2,487.3l-4.5,2.6l2.7-4.5c-0.8-0.6-1.7-0.9-2.7-0.9h-0.1c-0.3,0-0.6,0-0.9-0.1l-1.5,0.9l0.7-1.1
	c-1.1-0.3-2-1-2.7-1.8l-2.7,1.6l1.7-2.8c-1.6-1.7-3.7-2.8-6.1-2.8c-2.8,0-5.4,1.5-7,3.9c-1,1.4-2.7,2.3-4.6,2.3h-0.2
	c-3.1,0-5.7,3.2-5.7,7.2s2.5,7.2,5.7,7.2c0.7,0,1.4-0.2,2-0.5c2.2-0.9,4.7-1,6.9-0.1c0.9,0.4,1.9,0.6,2.9,0.6s2-0.2,2.9-0.6
	c2.2-0.9,4.7-0.8,6.8,0.1c0.6,0.3,1.3,0.4,2,0.4c3.1,0,5.7-3.2,5.7-7.2C1163.4,490.2,1163,488.7,1162.2,487.3z"/>
<path class="st9" d="M915.1,480.9c1.6-0.3,3.3-0.1,4.9,0.5c1.9,0.8,4,0.8,5.8,0c2.2-0.9,4.7-0.8,6.9,0.1c0.6,0.3,1.3,0.4,2,0.5
	c2.8,0,5.1-2.5,5.6-5.9c-0.6-0.4-1-0.8-1.4-1.4c-1.6-2.4-4.1-3.9-7-3.9s-5.3,1.5-7,3.9c-1,1.4-2.7,2.3-4.6,2.3h-0.1
	C918,477,916.1,478.6,915.1,480.9z"/>
<path class="st12" d="M906.7,470.4l4.5,2.6l-2.7-4.5c0.8-0.6,1.7-0.9,2.7-0.9h0.1c0.3,0,0.6,0,0.9-0.1l1.5,0.9l-0.7-1.1
	c1.1-0.3,2-1,2.7-1.8l2.7,1.6l-1.7-2.8c1.6-1.7,3.7-2.8,6.1-2.8c2.8,0,5.4,1.5,7,3.9c1,1.4,2.7,2.3,4.6,2.3h0.1
	c3.1,0,5.7,3.2,5.7,7.2s-2.5,7.2-5.7,7.2c-0.7,0-1.4-0.2-2-0.5c-2.2-0.9-4.7-1-6.9-0.1c-0.9,0.4-1.9,0.6-2.9,0.6s-2-0.2-2.9-0.6
	c-2.2-0.9-4.7-0.8-6.8,0.1c-0.6,0.3-1.3,0.4-2,0.4c-3.1,0-5.7-3.2-5.7-7.2C905.5,473.3,905.9,471.8,906.7,470.4z"/>
<path class="st13" d="M941.2,541.1l90.7,39.8c2.4,1,5.5,1.6,8.6,1.6s6.3-0.5,8.6-1.6l90.7-39.8c4.8-2.1,4.8-5.5,0-7.6l-90.7-39.8
	c-2.4-1-5.5-1.6-8.6-1.6s-6.3,0.5-8.6,1.6l-90.7,39.8C936.5,535.6,936.5,539,941.2,541.1z"/>
<path class="st13" d="M1139.9,581.9c0,0-16.6-7.3-18.8-8.2c-2.2-1-2.8-0.9-5.1,0c-2.3,1-66.9,29.3-66.9,29.3c-2.4,1-5.5,1.6-8.6,1.6
	s-6.3-0.5-8.6-1.6c0,0-62.9-27.6-65.8-28.9c-3.2-1.4-4.1-1.4-7-0.1l-17.9,7.8c-4.8,2.1-4.8,5.5,0,7.6l90.7,39.8
	c2.4,1,5.5,1.6,8.6,1.6s6.3-0.5,8.6-1.6l90.7-39.8C1144.7,587.4,1144.7,584,1139.9,581.9L1139.9,581.9z"/>
<path class="st13" d="M1139.9,630.3c0,0-16.6-7.3-18.8-8.2s-2.8-0.9-5.1,0s-66.8,29.4-66.8,29.4c-2.4,1-5.5,1.6-8.6,1.6
	s-6.3-0.5-8.6-1.6c0,0-62.9-27.6-65.8-28.9c-3.2-1.4-4.1-1.4-7-0.1l-17.9,7.8c-4.8,2.1-4.8,5.5,0,7.6l90.7,39.8
	c2.4,1.1,5.5,1.6,8.6,1.6s6.3-0.5,8.6-1.6l90.7-39.8C1144.7,635.8,1144.7,632.4,1139.9,630.3z"/>
<ellipse class="st14" cx="985.5" cy="469.7" rx="19.7" ry="24.9"/>
<rect x="983.3" y="510.5" class="st6" width="17.5" height="15.9"/>
<path class="st15" d="M969.9,587.1l5.7,7.3c0-3,1.5-5.8,4.2-7.6c-2.5-2.2-5.2-4.2-8.1-5.9c-0.1-0.1-0.3-0.2-0.5-0.1
	c-0.1,0-0.3,0.1-0.4,0.2c-0.9,0.9-1.9,2.1-2.3,3.3C968.2,585.4,969.2,586.2,969.9,587.1z"/>
<path class="st16" d="M981.4,586.1c0.9,0,1.7,0.4,2.5,0.8c1,0.4,2,1,2.9,1.7s1.4,1.7,1.5,2.7c0,0.8-0.4,1.6-0.7,2.4
	c-1.5,3.6-1.9,7.6-1.1,11.4c0.3,1.2,0.7,2.6,0.2,3.8c-0.4,1.1-1.4,1.9-2.4,2.7c-1.6,1.2-3.3,2.3-5.3,2.6c-2,0.2-4.3-0.8-4.8-2.5
	c-0.3-1.1,0.2-2.1,0.4-3.2c0.7-2.5,0.7-5.1,0.7-7.7c0-0.8,0-1.6-0.2-2.3c-0.1-0.5-0.4-1.1-0.6-1.6c-0.5-1.4-0.7-3-0.2-4.4
	c0.3-0.7,0.8-1.4,1.3-2C977.1,588.6,978.6,586.1,981.4,586.1z"/>
<path class="st15" d="M978.3,476c0,0.9,0.1,1.9-0.4,2.7c-0.4,0.7-1.2,1.2-1.9,1.7l-2.5,1.6c-0.1,0.1-0.3,0.2-0.3,0.3
	c0,0.2,0.1,0.3,0.3,0.4c1,0.7,2.2,1.2,3.4,1.4c0.9,0.1,1.8,0.2,2.6,0.2c4.6,0.1,9.3,0.2,13.7-0.9c0.8-0.2,1.6-0.5,2.3-0.9
	s1.2-1.1,1.3-1.8c-1.1-0.1-2.1-0.7-3.1-1.2c-0.9-0.6-1.9-1.2-2.2-2.2c-0.2-0.6-0.1-1.3-0.2-1.9c-0.3-1-1.2-1.7-2.2-2.3
	c-2.5-1.3-5.5-1.4-8.3-2.1c-1-0.2-2.8-1.3-2.8,0.1C977.9,472.9,978.2,474.5,978.3,476z"/>
<path class="st7" d="M978.3,476c0,0.9,0.1,1.9-0.4,2.7c-0.4,0.7-1.2,1.2-1.9,1.7l-2.5,1.6c-0.1,0.1-0.3,0.2-0.3,0.3
	c0,0.2,0.1,0.3,0.3,0.4c1,0.7,2.2,1.2,3.4,1.4c0.9,0.1,1.8,0.2,2.6,0.2c4.6,0.1,9.3,0.2,13.7-0.9c0.8-0.2,1.6-0.5,2.3-0.9
	s1.2-1.1,1.3-1.8c-1.1-0.1-2.1-0.7-3.1-1.2c-0.9-0.6-1.9-1.2-2.2-2.2c-0.2-0.6-0.1-1.3-0.2-1.9c-0.3-1-1.2-1.7-2.2-2.3
	c-2.5-1.3-5.5-1.4-8.3-2.1c-1-0.2-2.8-1.3-2.8,0.1C977.9,472.9,978.2,474.5,978.3,476z"/>
<path d="M973.8,528.2c-3.6-0.8-7.3,0.4-10.6,1.9c-3.2,1.6-6.2,3.6-9.7,4.8c-2.8,1-5.8,1.4-8.1,3c-2.1,1.5-3.3,3.8-4,6.1
	c-0.5,1.3-0.7,2.7-0.6,4c0.2,1,0.6,2.1,1.1,3c2.4,4.8,5.4,9.4,8.4,13.9c5.4,8.1,10.9,16.3,17.9,23.3c2.2-1.4,2-4.8,4.2-6.2
	c0.6-0.4,1.2-0.6,1.7-1c1-1,0.6-2.6,0.1-3.9c-3.1-8.1-6.7-15.9-10.9-23.5c6,0,11.1-4.3,17.1-5.2c1.7-0.2,3.3-0.3,5-0.3
	c5.9-0.1,11.8-0.5,17.6-1.1c2.1-0.2,4.4-0.6,6-1.9c1.7-1.3,2.2-3.4,2.7-5.4c1-4.1,3.7-7.7,5.3-11.6c0.4-1,0.8-2,1.3-3
	c0.4-0.8,1-1.6,1.4-2.5c1.5-2.6,2.3-5.5,3.1-8.4c0.9-3.5,1.7-7,2.5-10.5c0.5-2.4,1.6-5,0.3-7.1c-0.7-1.2-2-2-3.4-2.6
	c-1.5-0.6-3.1-1-4.7-0.8c-3.2,0.5-5.3,3.1-7.1,5.5l-2.8,3.8c-0.7,0.9-1.3,1.8-1.8,2.7c-1,1.9-1.6,3.9-2.4,5.8
	c-2.2,5.2-6.2,10-11.7,12.5c-1.5,0.7-3,1.2-4.5,1.8c-1.2,0.5-2.3,1.1-3.4,1.6C980.7,528.3,977.2,529,973.8,528.2z"/>
<ellipse class="st15" cx="987.7" cy="466.7" rx="10.9" ry="9.9"/>
<path class="st17" d="M992.5,478c-0.5,1.1-1,2.3-1.8,3.2c-1.6,1.6-4.1,2.2-6.5,2.3c-2.7,0.1-5.3-0.3-7.8-1.2
	c-1.1-0.4-2.1-0.9-3.3-0.8c-1.6,0.1-2.8,1.4-4.3,2.1c-0.7,0.4-1.5,0.6-2.3,0.9c-3.8,1.5-6.5,4.6-7.3,8.3c-0.8,4.2,2.9,8.3,5.2,12
	c1,1.7,2.2,3.3,2.7,5.1c0.9,3.1,0,6.3-1.1,9.3c-1.2,3-2.6,5.9-2.9,9.1c-0.1,0.9,0.3,2.2,1.3,2.2c0.4,0,0.7-0.2,1-0.4
	c1.8-0.9,4-1.3,6-1c1.5,0.2,2.8,0.8,4.3,0.9c2.9,0.4,5.7-0.5,8.4-1.4c2.6-0.9,5.3-1.8,7.1-3.6c1.4-1.4,2.2-3.2,3.6-4.6
	c1.9-1.8,4.7-2.7,6.2-4.7c0.9-1.2,1.3-2.6,1.8-4c0.5-1.4,1.3-2.7,2.7-3.4c-0.7-1.2-1.6-2.5-1.5-3.8c0.1-1.2,0.8-2.3,1.3-3.3
	c0.4-0.7,0.6-1.5,0.9-2.2l0.9-2.4c0.2-0.7,0.5-1.3,0.7-2c0.3-1.1,0.4-2.3,0.8-3.5c0.9-2.9,3.3-5.3,5.5-7.5c-1.9-0.7-3.9-1.2-5.9-1.5
	c-0.7-0.1-1.3-0.2-2-0.5s-1.3-0.8-2-1.1c-1.1-0.5-2.3-0.7-3.6-0.8C998,479.4,995.2,478.8,992.5,478z"/>
<path class="st15" d="M955.5,522.3c-0.1,0.9-0.1,1.8,0.1,2.6c0.3,0.9,0.7,1.8,1.2,2.6c2.3,3.9,4.1,8.1,6,12.2
	c0.5,1.1,0.9,2.2,1.2,3.3c0.2,0.9,0.2,1.7,0.3,2.6c0.1,0.9,0.4,1.7,0.7,2.5c0.4,0.8,2.8,5.4,3.7,5.8c2,1,4.6,0.1,5.8-1.6
	s-0.4-7.6-1-9.6c-0.6-1.9-1.8-3.7-2.8-5.5c-1.9-3.1-3.6-6.2-5.2-9.5c-1.3-2.8-2.5-5.8-2-8.7c0.3-1.7,1.2-3.2,1.8-4.8s1.1-3.4,0.5-5
	c-0.1-0.3-0.2-0.6-0.4-0.8c-0.3-0.3-0.7-0.5-1.2-0.7c-1.9-0.7-5.9-1.3-6.7,1.1c-0.3,1-0.4,2.1-0.7,3.1c-0.4,1.6-0.8,3.2-1,4.8
	C955.8,518.5,955.7,520.4,955.5,522.3z"/>
<path class="st15" d="M995.6,529.3c-2.4,2.6-4.8,5.3-7.1,8l6,4c0.2-0.7,0.5-1.4,0.9-2.1c0.4-0.6,0.9-1.3,1.4-1.8l6-6.8
	c-1.4-0.8-3-1.3-4.7-1.4C997.3,529.3,996.4,529.2,995.6,529.3z"/>
<path class="st15" d="M1021.8,486.2c1.6,0.3,3.2,0.7,4.7,1.1c3.2,0.8,6.5,2,8.8,4.3c0.5,0.5,0.9,1.3,0.5,1.8
	c-0.2,0.2-0.3,0.3-0.5,0.4c-0.6,0.5-0.9,1.1-1.3,1.8c-0.7,1.2-1.7,2.4-2.8,3.3c-0.9-0.9-1.9-1.6-3.1-2.2l-2.5-1.4
	c-1.1-0.6-2.2-1.3-3.5-1.4c-1.5-0.2-3,0.2-4.4,0.3c-1.9,0.1-3.8-0.3-5.4-1.1c-0.2-0.1-0.4-0.2-0.5-0.4c-0.1-0.1-0.1-0.3-0.1-0.4
	c-0.2-1.6,0.4-3.1,1.5-4.3c0.8-0.9,2.5-2.5,3.8-2.7c0.6-0.1,1.6,0.3,2.2,0.4L1021.8,486.2z"/>
<path d="M1019.9,495.5c-0.4,0.2-0.9,0.3-1.3,0.5c-3.2,1.5-6.6,3.2-8.8,5.8c-1.1,1.3-1.9,2.8-2.7,4.3l-5.4,10.4l-1.1,2.2l-1.7,3.3
	l-4.4,8.5c1.6-0.2,3.3-0.2,4.7,0.4s2.6,2,2.4,3.5c1.3-0.1,2-1.4,2.9-2.2c0.7-0.7,1.7-1.1,2.6-1.7c1.1-0.8,2.1-1.7,3-2.7
	c2.8-2.9,5.9-5.6,9.2-8c0.6-0.5,1.2-1,1.8-1.5c1.2-1.2,2.1-2.7,2.8-4.2c1.3-2.9,2.3-6,2.7-9.2c0.3-1.9,0.4-4-0.5-5.7
	c-1.4-2.7-4.6-4.1-7.8-3.5"/>
<path class="st18" d="M1019.9,494.6c-0.4,0.2-0.9,0.3-1.3,0.5c-3.2,1.5-6.6,3.2-8.8,5.8c-1.1,1.3-1.9,2.8-2.7,4.3l-5.4,10.4
	l-1.1,2.2l-1.7,3.3l-4.4,8.5c1.6-0.2,3.3-0.2,4.7,0.4s2.6,2,2.4,3.5c1.3-0.1,2-1.4,2.9-2.2c0.7-0.7,1.7-1.1,2.6-1.7
	c1.1-0.8,2.1-1.7,3-2.7c2.8-2.9,5.9-5.6,9.2-8c0.6-0.5,1.2-1,1.8-1.5c1.2-1.2,2.1-2.7,2.8-4.2c1.3-2.9,2.3-6,2.7-9.2
	c0.3-1.9,0.4-4-0.5-5.7c-1.4-2.7-4.6-4.1-7.8-3.5"/>
<path class="st16" d="M991,536l-4.5-0.5c-0.1,0-0.3,0-0.4,0c-0.1,0.1-0.2,0.2-0.3,0.3c-1.5,2.5-2.8,5-4.1,7.6
	c-0.7,1.4-1.4,3.1-0.5,4.5c0.3,0.4,0.6,0.7,0.9,1.1c0.6,0.9,0.3,2.1-0.1,3.1c-0.2,0.3-0.2,0.6-0.2,0.9c0.1,0.4,0.6,0.7,1,0.9
	c3.6,1.6,7.4,2.6,11.3,3.1c0.3,0.1,0.6,0,0.9-0.1c0.2-0.1,0.3-0.3,0.3-0.6c0.2-0.4,0.3-0.8,0.4-1.2c0.3-1.5-0.2-3-0.5-4.5
	c-0.6-2.4-0.8-4.9-0.1-7.2c0.3-1,0.8-1.9,1.4-2.7c0.7-1-1.7-1.9-2.4-2.5C993.2,537,992.9,536.2,991,536z"/>
<path class="st19" d="M957.7,502.9l-1.4,7.6c1.2-1,2.9-1.2,4.5-1.2s3.4,0.1,4.5,1.2c0.5,0.4,0.7,1,1.2,1.5c0.4,0.5,1.1,0.8,1.7,0.6
	c0.4-0.2,0.8-0.5,0.9-1c0.1-0.4,0.1-0.9,0.1-1.3l-0.5-8.4c-0.1-2-0.2-4.1-1-6c-0.5-1-1.1-2-1.9-2.8c-0.2-0.3-0.5-0.5-0.8-0.6
	c-0.3-0.2-0.7-0.3-1.1-0.3c-1.1-0.2-2.8-0.4-3.8,0.1c-0.8,0.4-0.9,1.5-1,2.3C958.7,497.3,958.2,500.1,957.7,502.9z"/>
<ellipse class="st14" cx="987.7" cy="460.8" rx="15.3" ry="6"/>
<path class="st7" d="M987.7,464.7c-7.6,0-13.9-2.1-15.1-5c-0.1,0.3-0.2,0.7-0.2,1c0,3.3,6.9,6,15.3,6s15.3-2.7,15.3-6
	c0-0.3-0.1-0.7-0.2-1C1001.6,462.6,995.3,464.7,987.7,464.7z"/>
<polygon class="st20" points="1011.5,538 1012.6,539.8 1048.2,532.9 1046.8,530.9 "/>
<path class="st20" d="M1007.2,539.7l-5.4-29.1c-0.1-0.5,0.3-1,0.8-1.1c0,0,0,0,0.1,0l40.9-4c0.5-0.1,1,0.3,1.1,0.8l3.8,25.5
	L1007.2,539.7z"/>
<path class="st7" d="M1007.2,539.7l-5.4-29.1c-0.1-0.5,0.3-1,0.8-1.1c0,0,0,0,0.1,0l40.9-4c0.5-0.1,1,0.3,1.1,0.8l3.8,25.5
	L1007.2,539.7z"/>
<path class="st20" d="M1007.9,539.7l-5.4-29.1c-0.1-0.5,0.3-1,0.8-1.1c0,0,0,0,0.1,0l40.9-4c0.5-0.1,1,0.3,1.1,0.8l3.8,25.5
	L1007.9,539.7z"/>
<polygon class="st21" points="1005.3,511.9 1009.7,536.7 1046.7,529.7 1043.3,507.8 "/>
<path class="st22" d="M1012.4,539.2l-0.3-0.5l-4.9,1l12.5,17.3c0.4,0.5,1.1,0.8,1.8,0.6l43.8-11.6c0.9-0.2,1.3-1,1.1-1.8
	c-0.1-0.3-0.3-0.6-0.6-0.8l-17-11.7l-3.5,0.8l0.2,0.3L1012.4,539.2z"/>
<path class="st7" d="M1012.4,539.2l-0.3-0.5l-4.9,1l12.5,17.3c0.4,0.5,1.1,0.8,1.8,0.6l43.8-11.6c0.9-0.2,1.3-1,1.1-1.8
	c-0.1-0.3-0.3-0.6-0.6-0.8l-17-11.7l-3.5,0.8l0.2,0.3L1012.4,539.2z"/>
<path class="st22" d="M1013,539.2l-0.3-0.5l-4.9,1l12.5,17.3c0.4,0.5,1.1,0.8,1.8,0.6l43.8-11.6c0.9-0.2,1.3-1,1.1-1.8
	c-0.1-0.3-0.3-0.6-0.6-0.8l-17-11.7l-3.5,0.8l0.2,0.3L1013,539.2z"/>
<path class="st7" d="M1032.6,546.3l14.1-3.3c0.1,0,0.2,0,0.3,0.1l6.3,5.2c0.1,0.1,0.1,0.2,0,0.4l-0.1,0.1l-14.9,4
	c-0.1,0-0.2,0-0.3-0.1l-5.4-5.8C1032.3,546.6,1032.4,546.4,1032.6,546.3C1032.5,546.3,1032.5,546.3,1032.6,546.3z"/>
<path class="st23" d="M1032.9,546l14.1-3.3c0.1,0,0.2,0,0.3,0.1l6.2,5.2c0.1,0.1,0.1,0.2,0,0.4l-0.1,0.1l-14.9,4
	c-0.1,0-0.2,0-0.3-0.1l-5.4-5.8c-0.1-0.1-0.1-0.3,0-0.3C1032.8,546.1,1032.8,546,1032.9,546z"/>
<g class="st24">
	<path d="M1013,541.6l0.6,0.9l0.1,0.1l2.1-0.4c0.1,0,0.1-0.1,0.1-0.1l0,0l-0.7-0.9c0,0-0.1-0.1-0.1,0L1013,541.6
		C1013,541.5,1013,541.5,1013,541.6L1013,541.6z"/>
	<path d="M1015.8,541.1l0.6,0.9c0,0,0.1,0.1,0.1,0l2.1-0.4c0.1,0,0.1-0.1,0.1-0.1l0,0l-0.7-0.9c0,0-0.1-0.1-0.1,0L1015.8,541.1
		C1015.8,540.9,1015.8,541,1015.8,541.1L1015.8,541.1z"/>
	<path d="M1018.5,540.6l0.6,0.9c0,0,0.1,0.1,0.1,0l2.1-0.4c0.1,0,0.1-0.1,0.1-0.1l0,0l-0.7-0.9c0,0-0.1-0.1-0.1,0L1018.5,540.6
		C1018.5,540.4,1018.5,540.5,1018.5,540.6C1018.5,540.5,1018.5,540.6,1018.5,540.6z"/>
	<path d="M1021.2,540l0.6,0.9l0.1,0.1l2.1-0.4c0.1,0,0.1-0.1,0.1-0.1l0,0l-0.7-0.9c0,0-0.1-0.1-0.1,0L1021.2,540
		C1021.2,539.9,1021.2,540,1021.2,540L1021.2,540z"/>
	<path d="M1021,541.5l0.6,0.9c0,0,0.1,0.1,0.1,0l2.1-0.4c0.1,0,0.1-0.1,0.1-0.1l0,0l-0.7-0.9c0,0-0.1-0.1-0.1,0L1021,541.5
		C1021,541.3,1021,541.4,1021,541.5C1021,541.4,1021,541.4,1021,541.5z"/>
	<path d="M1018.2,542l0.6,0.9c0,0,0.1,0.1,0.1,0l2.1-0.4c0.1,0,0.1-0.1,0.1-0.1l0,0l-0.7-0.9c0,0-0.1-0.1-0.1,0L1018.2,542
		C1018.2,541.9,1018.2,541.9,1018.2,542L1018.2,542z"/>
	<path d="M1020,543.1l0.6,0.9c0,0,0.1,0.1,0.1,0l2.1-0.4c0.1,0,0.1-0.1,0.1-0.1l0,0l-0.7-0.9c0,0-0.1-0.1-0.1,0L1020,543.1
		C1020,543,1020,543,1020,543.1L1020,543.1z"/>
	<path d="M1022.6,544.1l0.6,0.9c0,0,0.1,0.1,0.1,0l2.1-0.4c0.1,0,0.1-0.1,0.1-0.1l0,0l-0.7-0.9c0,0-0.1-0.1-0.1,0L1022.6,544.1
		C1022.6,544,1022.5,544,1022.6,544.1C1022.5,544.1,1022.6,544.1,1022.6,544.1z"/>
	<path d="M1023,545.7l1,1.2h0.1l2.1-0.5c0.1,0,0.1-0.1,0.1-0.1l0,0l-1.1-1.2h-0.1L1023,545.7C1023,545.6,1023,545.6,1023,545.7
		L1023,545.7z"/>
	<path d="M1025.8,545.1l1,1.2h0.1l2.8-0.7c0.1,0,0.1-0.1,0.1-0.1l0,0l-1.1-1.2h-0.1L1025.8,545.1
		C1025.8,544.9,1025.8,545,1025.8,545.1L1025.8,545.1z"/>
	<path d="M1020.3,546.4l1,1.2h0.1l2.1-0.5c0.1,0,0.1-0.1,0.1-0.1l0,0l-1.1-1.2h-0.1L1020.3,546.4
		C1020.2,546.2,1020.2,546.3,1020.3,546.4C1020.2,546.3,1020.2,546.3,1020.3,546.4z"/>
	<path d="M1017.3,547l1,1.2h0.1l2.1-0.5c0.1,0,0.1-0.1,0.1-0.1l0,0l-1.1-1.2h-0.1L1017.3,547C1017.3,546.9,1017.3,546.9,1017.3,547
		L1017.3,547z"/>
	<path d="M1023.9,539.5l0.6,0.9l0.1,0.1l2.1-0.4c0.1,0,0.1-0.1,0.1-0.1l0,0l-0.7-0.9c0,0-0.1-0.1-0.1,0L1023.9,539.5
		C1023.9,539.3,1023.8,539.4,1023.9,539.5C1023.9,539.4,1023.9,539.5,1023.9,539.5z"/>
	<path d="M1023.7,540.9l0.6,0.9l0.1,0.1l2.1-0.4c0.1,0,0.1-0.1,0.1-0.1l0,0l-0.7-0.9c0,0-0.1-0.1-0.1,0l-2,0.4
		C1023.7,540.7,1023.7,540.8,1023.7,540.9L1023.7,540.9z"/>
	<path d="M1026.5,538.9l0.6,0.9l0.1,0.1l2.1-0.4c0.1,0,0.1-0.1,0.1-0.1l0,0l-0.7-0.9c0,0-0.1-0.1-0.1,0L1026.5,538.9
		C1026.5,538.8,1026.4,538.8,1026.5,538.9C1026.4,538.9,1026.5,538.9,1026.5,538.9z"/>
	<path d="M1034,537.4l0.9,0.8h0.1l1.9-0.4c0.1,0,0.1-0.1,0.1-0.1s0,0,0-0.1l-1-0.8h-0.1l-1.8,0.4C1034,537.3,1034,537.3,1034,537.4
		L1034,537.4z"/>
	<path d="M1036.5,536.9l0.9,0.8h0.1l1.9-0.4c0.1,0,0.1-0.1,0.1-0.1s0,0,0-0.1l-1-0.9h-0.1l-1.8,0.4
		C1036.5,536.8,1036.4,536.8,1036.5,536.9C1036.4,536.9,1036.5,536.9,1036.5,536.9z"/>
	<path d="M1034.1,538.8l0.9,0.8h0.1l1.9-0.4c0.1,0,0.1-0.1,0.1-0.1s0,0,0-0.1l-1-0.8h-0.1l-1.8,0.4
		C1034.1,538.7,1034.1,538.7,1034.1,538.8L1034.1,538.8z"/>
	<path d="M1031.6,539.3l0.8,0.8h0.1l1.8-0.4c0.1,0,0.1-0.1,0.1-0.1s0,0,0-0.1l-0.9-0.8h-0.1l-1.7,0.4
		C1031.6,539.2,1031.6,539.2,1031.6,539.3L1031.6,539.3z"/>
	<path d="M1033.5,541.9l0.8,0.8h0.1l1.8-0.4c0.1,0,0.1-0.1,0.1-0.1s0,0,0-0.1l-0.9-0.8h-0.1l-1.7,0.4
		C1033.5,541.7,1033.4,541.8,1033.5,541.9L1033.5,541.9z"/>
	<path d="M1030.9,542.4l0.8,0.8h0.1l1.8-0.4c0.1,0,0.1-0.1,0.1-0.1s0,0,0-0.1l-0.9-0.8h-0.1l-1.7,0.4
		C1030.9,542.3,1030.9,542.3,1030.9,542.4L1030.9,542.4z"/>
	<path d="M1028.3,543l0.8,0.8h0.1l1.8-0.4c0.1,0,0.1-0.1,0.1-0.1s0,0,0-0.1l-0.9-0.8h-0.1l-1.7,0.4
		C1028.3,542.8,1028.2,542.9,1028.3,543C1028.2,543,1028.3,543,1028.3,543z"/>
	<path d="M1025.5,543.5l0.9,0.8h0.1l1.8-0.4c0.1,0,0.1-0.1,0.1-0.1s0,0,0-0.1l-1-0.8h-0.1l-1.7,0.4
		C1025.5,543.3,1025.4,543.4,1025.5,543.5C1025.4,543.5,1025.5,543.5,1025.5,543.5z"/>
	<path d="M1030.9,540.9l0.8,0.8h0.1l1.8-0.4c0.1,0,0.1-0.1,0.1-0.1s0,0,0-0.1l-0.9-0.8h-0.1l-1.7,0.4
		C1030.9,540.8,1030.8,540.8,1030.9,540.9C1030.8,540.9,1030.9,540.9,1030.9,540.9z"/>
	<path d="M1028.4,541.5l0.8,0.8h0.1l1.8-0.4c0.1,0,0.1-0.1,0.1-0.1s0,0,0-0.1l-0.9-0.8h-0.1l-1.7,0.4
		C1028.3,541.3,1028.3,541.4,1028.4,541.5C1028.3,541.4,1028.3,541.5,1028.4,541.5z"/>
	<path d="M1025.6,542l0.8,0.8h0.1l1.8-0.4c0.1,0,0.1-0.1,0.1-0.1s0,0,0-0.1l-0.9-0.8h-0.1l-1.7,0.4
		C1025.6,541.8,1025.6,541.9,1025.6,542L1025.6,542z"/>
	<path d="M1022.9,542.6l0.9,0.8h0.1l1.8-0.4c0.1,0,0.1-0.1,0.1-0.1s0,0,0-0.1l-1-0.8h-0.1l-1.7,0.4
		C1022.9,542.4,1022.8,542.5,1022.9,542.6C1022.8,542.6,1022.8,542.6,1022.9,542.6z"/>
	<path d="M1033.5,540.4l0.8,0.8h0.1l1.8-0.4c0.1,0,0.1-0.1,0.1-0.1s0,0,0-0.1l-0.9-0.8h-0.1l-1.7,0.4
		C1033.5,540.2,1033.4,540.3,1033.5,540.4L1033.5,540.4z"/>
	<path d="M1029.1,539.9l0.8,0.8h0.1l1.8-0.4c0.1,0,0.1-0.1,0.1-0.1s0,0,0-0.1l-0.9-0.8h-0.1l-1.7,0.4
		C1029,539.8,1029,539.8,1029.1,539.9C1029,539.9,1029,539.9,1029.1,539.9z"/>
	<path d="M1038.8,536.4l0.9,0.9c0,0,0,0,0.1,0l2-0.4c0,0,0.1,0,0.1-0.1l0,0l-1-0.9h-0.1l-1.8,0.4
		C1038.8,536.3,1038.8,536.3,1038.8,536.4L1038.8,536.4z"/>
	<path d="M1041.2,535.9l0.9,0.9c0,0,0,0,0.1,0l2-0.4c0,0,0.1,0,0.1-0.1l0,0l-1-0.9c0,0,0,0-0.1,0L1041.2,535.9
		C1041.2,535.8,1041.1,535.9,1041.2,535.9L1041.2,535.9z"/>
	<path d="M1043.6,535.4l0.8,0.8c0,0,0,0,0.1,0l1.8-0.5c0,0,0.1-0.1,0-0.1l0,0l-0.9-0.7c0,0,0,0-0.1,0l-1.7,0.3
		C1043.6,535.3,1043.6,535.4,1043.6,535.4L1043.6,535.4z"/>
	<path d="M1046.1,536.2l0.8,0.8c0,0,0,0,0.1,0l1.8-0.5c0,0,0.1,0,0.1-0.1l0,0l-0.9-0.7c0,0,0,0-0.1,0l-1.7,0.3
		C1046.1,536.1,1046.1,536.1,1046.1,536.2L1046.1,536.2z"/>
	<path d="M1045.8,537.7l0.8,0.8h0.1l1.8-0.4c0.1,0,0.1-0.1,0.1-0.1s0,0,0-0.1l-0.9-0.7h-0.1l-1.7,0.3
		C1045.8,537.5,1045.8,537.6,1045.8,537.7C1045.8,537.6,1045.8,537.7,1045.8,537.7z"/>
	<path d="M1043.7,539.6l0.8,0.8h0.1l1.8-0.4c0.1,0,0.1-0.1,0.1-0.1l0,0l-0.9-0.7h-0.1l-1.7,0.3
		C1043.8,539.5,1043.7,539.5,1043.7,539.6L1043.7,539.6z"/>
	<path d="M1041.3,540.2l0.8,0.8h0.1l1.8-0.4c0.1,0,0.1-0.1,0.1-0.1s0,0,0-0.1l-0.9-0.7h-0.1l-1.7,0.3
		C1041.3,540.1,1041.2,540.1,1041.3,540.2L1041.3,540.2z"/>
	<path d="M1046.1,539l0.8,0.8h0.1l1.8-0.4c0.1,0,0.1-0.1,0.1-0.1s0,0,0-0.1l-0.9-0.7h-0.1l-1.7,0.3
		C1046.1,538.9,1046.1,538.9,1046.1,539L1046.1,539z"/>
	<path d="M1045.7,540.7l1.2,1h0.1l1.7-0.4c0.1,0,0.1-0.1,0.1-0.1l0,0l-1.3-1h-0.1L1045.7,540.7
		C1045.7,540.6,1045.6,540.6,1045.7,540.7L1045.7,540.7z"/>
	<path d="M1041.5,537.2l0.8,0.8c0,0,0,0,0.1,0l1.8-0.5c0,0,0.1,0,0.1-0.1l0,0l-0.9-0.7c0,0,0,0-0.1,0l-1.7,0.3
		C1041.4,537.2,1041.4,537.2,1041.5,537.2L1041.5,537.2z"/>
	<path d="M1039.1,537.8l0.8,0.8h0.1l1.8-0.4c0.1,0,0.1-0.1,0.1-0.1s0,0,0-0.1l-0.9-0.7h-0.1l-1.7,0.3
		C1039.1,537.6,1039.1,537.7,1039.1,537.8C1039.1,537.7,1039.1,537.8,1039.1,537.8z"/>
	<path d="M1038.6,539.3l0.8,0.8h0.1l1.8-0.4c0.1,0,0.1-0.1,0.1-0.1l0,0l-0.9-0.7h-0.1l-1.7,0.3
		C1038.6,539.1,1038.6,539.2,1038.6,539.3L1038.6,539.3z"/>
	<path d="M1036.2,539.8l0.8,0.8h0.1l1.8-0.4c0.1,0,0.1-0.1,0.1-0.1l0,0l-0.9-0.7h-0.1l-1.7,0.3
		C1036.2,539.7,1036.1,539.7,1036.2,539.8C1036.1,539.8,1036.2,539.8,1036.2,539.8z"/>
	<path d="M1036.6,538.3l0.8,0.8h0.1l1.8-0.4c0.1,0,0.1-0.1,0.1-0.1l0,0l-0.9-0.7h-0.1l-1.7,0.3
		C1036.6,538.1,1036.6,538.2,1036.6,538.3C1036.6,538.2,1036.6,538.3,1036.6,538.3z"/>
	<path d="M1038.7,540.7l0.8,0.8h0.1l1.8-0.4c0.1,0,0.1-0.1,0.1-0.1l0,0l-0.9-0.7h-0.1l-1.7,0.3
		C1038.7,540.5,1038.6,540.6,1038.7,540.7L1038.7,540.7z"/>
	<path d="M1036.3,541.3l0.8,0.8h0.1l1.7-0.4c0.1,0,0.1-0.1,0.1-0.1s0,0,0-0.1l-0.8-0.6h-0.1l-1.6,0.3
		C1036.3,541.1,1036.2,541.2,1036.3,541.3C1036.2,541.2,1036.2,541.3,1036.3,541.3z"/>
	<path d="M1043.9,536.7l0.8,0.8h0.1l1.8-0.5c0,0,0.1,0,0.1-0.1l0,0l-0.9-0.7c0,0,0,0-0.1,0l-1.7,0.3
		C1043.9,536.6,1043.8,536.6,1043.9,536.7L1043.9,536.7z"/>
	<path d="M1043.5,538.2l0.8,0.8h0.1l1.8-0.4c0.1,0,0.1-0.1,0.1-0.1l0,0l-0.9-0.7h-0.1l-1.7,0.3
		C1043.5,538,1043.5,538.1,1043.5,538.2C1043.5,538.1,1043.5,538.2,1043.5,538.2z"/>
	<path d="M1041.2,538.8l0.8,0.8h0.1l1.8-0.4c0.1,0,0.1-0.1,0.1-0.1l0,0l-0.9-0.7h-0.1l-1.7,0.3
		C1041.2,538.6,1041.1,538.7,1041.2,538.8C1041.1,538.7,1041.1,538.8,1041.2,538.8z"/>
	<path d="M1031.6,537.9l0.9,0.8h0.1l1.9-0.4c0.1,0,0.1-0.1,0.1-0.1l0,0l-1-0.8h-0.1L1031.6,537.9
		C1031.6,537.8,1031.5,537.8,1031.6,537.9C1031.5,537.9,1031.6,537.9,1031.6,537.9z"/>
	<path d="M1029.1,538.5l0.8,0.8h0.1l1.8-0.4c0.1,0,0.1-0.1,0.1-0.1s0,0,0-0.1l-0.9-0.8h-0.1l-1.7,0.4
		C1029,538.3,1029,538.4,1029.1,538.5C1029,538.4,1029,538.5,1029.1,538.5z"/>
	<path d="M1026.3,540.4l0.6,0.9l0.1,0.1l2.1-0.4c0.1,0,0.1-0.1,0.1-0.1l0,0l-0.7-0.9c0,0-0.1-0.1-0.1,0L1026.3,540.4
		C1026.3,540.2,1026.3,540.3,1026.3,540.4L1026.3,540.4z"/>
	<path d="M1012.5,540.7l2.1-0.4h0.1l0.4,0.4c0,0,0,0.1,0,0.2l0,0l-2.2,0.5c-0.1,0-0.1,0-0.1-0.1l-0.3-0.5
		C1012.4,540.8,1012.4,540.8,1012.5,540.7L1012.5,540.7z"/>
	<path d="M1015.4,540.2l2.1-0.4h0.1l0.4,0.4c0,0,0,0.1,0,0.2l0,0l-2.2,0.5c-0.1,0-0.1,0-0.1-0.1l-0.3-0.5
		C1015.2,540.3,1015.3,540.2,1015.4,540.2C1015.3,540.2,1015.3,540.2,1015.4,540.2z"/>
	<path d="M1018.1,539.6l2.1-0.4h0.1l0.4,0.4c0,0,0,0.1,0,0.2l0,0l-2.2,0.5c-0.1,0-0.1,0-0.1-0.1l-0.3-0.5
		C1018,539.7,1018,539.6,1018.1,539.6L1018.1,539.6z"/>
	<path d="M1020.8,539.1l2.1-0.4h0.1l0.4,0.4c0,0,0,0.1,0,0.2l0,0l-2.1,0.5c-0.1,0-0.1,0-0.1,0l-0.3-0.5
		C1020.7,539.2,1020.8,539.1,1020.8,539.1L1020.8,539.1z"/>
	<path d="M1023.6,538.5l2.1-0.4h0.1l0.4,0.4c0,0.1,0,0.1,0,0.2l0,0l-2.1,0.5c-0.1,0-0.1,0-0.1-0.1l-0.3-0.4
		C1023.5,538.6,1023.5,538.5,1023.6,538.5L1023.6,538.5z"/>
	<path d="M1026.3,538l2.1-0.4h0.1l0.4,0.4c0,0.1,0,0.1,0,0.2l0,0l-2.1,0.5c-0.1,0-0.1,0-0.1-0.1l-0.3-0.4
		C1026.1,538.1,1026.2,538,1026.3,538C1026.2,538,1026.2,538,1026.3,538z"/>
	<path d="M1028.9,537.5l1.9-0.4h0.1l0.4,0.4c0,0,0,0.1,0,0.2c0,0,0,0-0.1,0l-1.9,0.4h-0.1l-0.4-0.4
		C1028.7,537.6,1028.8,537.6,1028.9,537.5C1028.8,537.5,1028.8,537.5,1028.9,537.5z"/>
	<path d="M1031.4,537l2-0.4h0.1l0.4,0.4v0.1c0,0,0,0-0.1,0l-1.9,0.4h-0.1L1031.4,537C1031.3,537.1,1031.3,537,1031.4,537L1031.4,537
		z"/>
	<path d="M1033.9,536.4l2-0.4h0.1l0.4,0.4v0.1l0,0l-1.9,0.5h-0.1l-0.4-0.4C1033.8,536.6,1033.8,536.5,1033.9,536.4L1033.9,536.4z"/>
	<path d="M1036.5,536l2-0.4h0.1l0.4,0.4v0.1l0,0l-1.9,0.4h-0.1L1036.5,536C1036.4,536.1,1036.4,536,1036.5,536L1036.5,536z"/>
	<path d="M1038.9,535.4l2-0.4h0.1l0.5,0.4v0.1l0,0l-2,0.5h-0.1l-0.5-0.4C1038.8,535.6,1038.8,535.5,1038.9,535.4
		C1038.8,535.5,1038.8,535.4,1038.9,535.4z"/>
	<path d="M1041.3,535l2-0.5h0.1l0.5,0.4v0.1l0,0l-2,0.5h-0.1L1041.3,535C1041.2,535.1,1041.2,535,1041.3,535L1041.3,535z"/>
	<path d="M1043.7,534.5l1.9-0.4h0.1l0.4,0.4v0.1l0,0l-1.8,0.4h-0.1L1043.7,534.5C1043.6,534.6,1043.6,534.5,1043.7,534.5
		C1043.6,534.5,1043.7,534.5,1043.7,534.5z"/>
	<path d="M1046,534l1.9-0.4h0.1l0.4,0.4v0.1l0,0l-1.8,0.4h-0.1L1046,534C1045.9,534.1,1045.9,534.1,1046,534
		C1045.9,534,1046,534,1046,534L1046,534z"/>
	<path d="M1014,543l0.7,0.9c0,0,0.1,0.1,0.1,0l3.6-0.8c0.1,0,0.1-0.1,0.1-0.1l0,0l-0.8-0.9h-0.1L1014,543
		C1014,542.8,1013.9,542.9,1014,543L1014,543z"/>
	<path d="M1015,544.2l0.7,1c0,0,0.1,0.1,0.1,0l4.4-0.9c0.1,0,0.1-0.1,0.1-0.1l0,0l-0.9-1h-0.1L1015,544.2
		C1015.1,544,1015,544.1,1015,544.2L1015,544.2z"/>
	<path d="M1016,545.5l0.8,1.1c0,0,0.1,0.1,0.1,0l5.8-1.3c0.1,0,0.1-0.1,0.1-0.1l0,0l-0.9-1.1c0,0-0.1-0.1-0.1,0L1016,545.5
		C1016,545.4,1016,545.4,1016,545.5L1016,545.5z"/>
	<path d="M1029.3,544.3l1.1,1.2h0.1l12.7-2.9c0.1,0,0.1-0.1,0.1-0.1s0,0,0-0.1l-1.3-1.2h-0.1l-12.5,2.9
		C1029.3,544.2,1029.2,544.2,1029.3,544.3L1029.3,544.3z"/>
	<path d="M1042.4,541.3l1.2,1.1h0.1l2.6-0.6c0.1,0,0.1-0.1,0.1-0.1l0,0l-1.3-1.2h-0.1l-2.6,0.6
		C1042.4,541.2,1042.4,541.2,1042.4,541.3L1042.4,541.3z"/>
	<path d="M1048.7,540.6l0.6,0.5c0,0,0,0,0.1,0l1.9-0.5c0,0,0.1,0,0.1-0.1l0,0l-0.7-0.6h-0.1L1048.7,540.6
		C1048.7,540.5,1048.7,540.6,1048.7,540.6L1048.7,540.6z"/>
	<path d="M1050.4,539.4l0.7,0.6h0.1l1.8-0.6c0,0,0.1,0,0.1-0.1l0,0l-0.7-0.5h-0.1L1050.4,539.4
		C1050.4,539.4,1050.4,539.4,1050.4,539.4L1050.4,539.4z"/>
	<path d="M1051.7,540.6l-0.5-0.4v-0.1l0,0l1.8-0.6h0.1l0.5,0.5v0.1l0,0L1051.7,540.6L1051.7,540.6z"/>
	<path d="M1053.5,539.6c0.2,0.1,0.4,0.4,0.5,0.5c0,0,0,0,0.1,0l1.8-0.5l0.1-0.1l0,0l-0.7-0.5h-0.1L1053.5,539.6
		C1053.5,539.5,1053.5,539.5,1053.5,539.6L1053.5,539.6z"/>
	<path d="M1048.3,538.5l1,0.9c0,0,0,0,0.1,0l4.7-1.1c0,0,0.1,0,0.1-0.1l0,0l-1.1-0.9c0,0,0,0-0.1,0L1048.3,538.5
		C1048.3,538.4,1048.3,538.4,1048.3,538.5L1048.3,538.5z"/>
	<path d="M1048,537.2l1,0.8c0,0,0,0,0.1,0l3.6-0.8c0,0,0.1,0,0.1-0.1l0,0l-1.2-0.9c0,0,0,0-0.1,0l-3.4,0.8
		C1048,537.1,1048,537.1,1048,537.2L1048,537.2z"/>
	<path d="M1048.3,535.8l1,0.8c0,0,0,0,0.1,0l1.8-0.4l0.1-0.1l0,0l-1.1-0.9h-0.1l-1.7,0.5C1048.3,535.6,1048.3,535.7,1048.3,535.8
		C1048.3,535.7,1048.3,535.8,1048.3,535.8z"/>
	<path d="M1045.8,535l0.9,0.8c0,0,0,0,0.1,0l2.9-0.6l0.1-0.1l0,0l-1.1-0.8c0,0,0,0-0.1,0l-2.7,0.7
		C1045.8,534.9,1045.8,534.9,1045.8,535L1045.8,535z"/>
</g>
<path class="st20" d="M1013,541.3l0.6,0.9c0,0,0.1,0.1,0.1,0l2.1-0.4c0.1,0,0.1-0.1,0.1-0.1l0,0l-0.7-0.9c0,0-0.1-0.1-0.1,0
	L1013,541.3C1013,541.2,1013,541.3,1013,541.3L1013,541.3z"/>
<path class="st20" d="M1015.8,540.8l0.6,0.9c0,0,0.1,0.1,0.1,0l2.1-0.4c0.1,0,0.1-0.1,0.1-0.1l0,0l-0.7-0.9c0,0-0.1-0.1-0.1,0
	L1015.8,540.8C1015.8,540.7,1015.8,540.7,1015.8,540.8L1015.8,540.8z"/>
<path class="st20" d="M1018.5,540.3l0.6,0.9c0,0,0.1,0.1,0.1,0l2.1-0.4c0.1,0,0.1-0.1,0.1-0.1l0,0l-0.7-0.9c0,0-0.1-0.1-0.1,0
	L1018.5,540.3C1018.5,540.1,1018.5,540.2,1018.5,540.3L1018.5,540.3z"/>
<path class="st20" d="M1021.2,539.8l0.6,0.9l0.1,0.1l2.1-0.4c0.1,0,0.1-0.1,0.1-0.1l0,0l-0.7-0.9c0,0-0.1-0.1-0.1,0L1021.2,539.8
	C1021.2,539.6,1021.2,539.7,1021.2,539.8C1021.2,539.7,1021.2,539.7,1021.2,539.8z"/>
<path class="st20" d="M1021,541.2l0.6,0.9c0,0,0.1,0.1,0.1,0l2.1-0.4c0.1,0,0.1-0.1,0.1-0.1l0,0l-0.7-0.9c0,0-0.1-0.1-0.1,0
	L1021,541.2C1021,541,1021,541.1,1021,541.2C1021,541.1,1021,541.2,1021,541.2z"/>
<path class="st20" d="M1018.2,541.7l0.6,0.9l0.1,0.1l2.1-0.4c0.1,0,0.1-0.1,0.1-0.1l0,0l-0.7-0.9c0,0-0.1-0.1-0.1,0L1018.2,541.7
	C1018.2,541.6,1018.2,541.6,1018.2,541.7L1018.2,541.7z"/>
<path class="st20" d="M1020,542.8l0.6,0.9c0,0,0.1,0.1,0.1,0l2.1-0.4c0.1,0,0.1-0.1,0.1-0.1l0,0l-0.7-0.9c0,0-0.1-0.1-0.1,0
	L1020,542.8C1020,542.7,1020,542.7,1020,542.8L1020,542.8z"/>
<path class="st20" d="M1022.6,543.8l0.6,0.9c0,0,0.1,0.1,0.1,0l2.1-0.4c0.1,0,0.1-0.1,0.1-0.1l0,0l-0.7-0.9c0,0-0.1-0.1-0.1,0
	L1022.6,543.8C1022.6,543.7,1022.5,543.7,1022.6,543.8C1022.5,543.8,1022.6,543.8,1022.6,543.8z"/>
<path class="st20" d="M1023,545.4l1,1.2h0.1l2.1-0.5c0.1,0,0.1-0.1,0.1-0.1l0,0l-1.1-1.2h-0.1L1023,545.4
	C1023,545.3,1023,545.3,1023,545.4L1023,545.4z"/>
<path class="st20" d="M1025.8,544.8l1,1.2h0.1l2.8-0.7c0.1,0,0.1-0.1,0.1-0.1l0,0l-1.1-1.2h-0.1L1025.8,544.8
	C1025.8,544.6,1025.8,544.7,1025.8,544.8L1025.8,544.8z"/>
<path class="st20" d="M1020.3,546.1l1,1.2h0.1l2.1-0.5c0.1,0,0.1-0.1,0.1-0.1l0,0l-1.1-1.2h-0.1L1020.3,546.1
	C1020.2,545.9,1020.2,546,1020.3,546.1C1020.2,546,1020.2,546,1020.3,546.1z"/>
<path class="st20" d="M1017.3,546.7l1,1.2h0.1l2.1-0.5c0.1,0,0.1-0.1,0.1-0.1l0,0l-1.1-1.2h-0.1L1017.3,546.7
	C1017.3,546.6,1017.3,546.6,1017.3,546.7L1017.3,546.7z"/>
<path class="st20" d="M1023.9,539.2l0.6,0.9l0.1,0.1l2.1-0.4c0.1,0,0.1-0.1,0.1-0.1l0,0l-0.7-0.9c0,0-0.1-0.1-0.1,0L1023.9,539.2
	C1023.9,539,1023.8,539.1,1023.9,539.2L1023.9,539.2z"/>
<path class="st20" d="M1023.7,540.6l0.6,0.9l0.1,0.1l2.1-0.4c0.1,0,0.1-0.1,0.1-0.1l0,0l-0.7-0.9c0,0-0.1-0.1-0.1,0l-2,0.4
	C1023.7,540.4,1023.7,540.5,1023.7,540.6L1023.7,540.6z"/>
<path class="st20" d="M1026.5,538.7l0.6,0.9l0.1,0.1l2.1-0.4c0.1,0,0.1-0.1,0.1-0.1l0,0l-0.7-0.9c0,0-0.1-0.1-0.1,0L1026.5,538.7
	C1026.5,538.5,1026.4,538.5,1026.5,538.7C1026.4,538.6,1026.4,538.6,1026.5,538.7z"/>
<path class="st20" d="M1034,537.2l0.9,0.8h0.1l1.9-0.4c0.1,0,0.1-0.1,0.1-0.1s0,0,0-0.1l-1-0.8h-0.1l-1.8,0.4
	C1034,537,1034,537.1,1034,537.2C1034,537.1,1034,537.1,1034,537.2z"/>
<path class="st20" d="M1036.5,536.6l0.9,0.8h0.1l1.9-0.4c0.1,0,0.1-0.1,0.1-0.1l0,0l-1-0.8h-0.1L1036.5,536.6
	C1036.5,536.5,1036.4,536.6,1036.5,536.6L1036.5,536.6z"/>
<path class="st20" d="M1034.1,538.5l0.9,0.8h0.1l1.9-0.4c0.1,0,0.1-0.1,0.1-0.1s0,0,0-0.1l-1-0.8h-0.1l-1.8,0.4
	C1034.1,538.4,1034.1,538.4,1034.1,538.5L1034.1,538.5z"/>
<path class="st20" d="M1031.6,539.1l0.8,0.8h0.1l1.8-0.4c0.1,0,0.1-0.1,0.1-0.1s0,0,0-0.1l-0.9-0.8h-0.1l-1.7,0.4
	C1031.6,538.9,1031.6,538.9,1031.6,539.1C1031.6,539,1031.6,539,1031.6,539.1z"/>
<path class="st20" d="M1033.5,541.6l0.8,0.8h0.1l1.8-0.4c0.1,0,0.1-0.1,0.1-0.1s0,0,0-0.1l-0.9-0.8h-0.1l-1.7,0.4
	C1033.5,541.4,1033.4,541.5,1033.5,541.6L1033.5,541.6z"/>
<path class="st20" d="M1030.9,542.1l0.8,0.8h0.1l1.8-0.4c0.1,0,0.1-0.1,0.1-0.1s0,0,0-0.1l-0.9-0.8h-0.1l-1.7,0.4
	C1030.9,542,1030.9,542,1030.9,542.1L1030.9,542.1z"/>
<path class="st20" d="M1028.3,542.7l0.8,0.8h0.1l1.8-0.4c0.1,0,0.1,0,0.2-0.1c0-0.1,0-0.1-0.1-0.1l-0.9-0.8h-0.1l-1.7,0.4
	C1028.3,542.5,1028.3,542.5,1028.3,542.7C1028.2,542.7,1028.2,542.7,1028.3,542.7z"/>
<path class="st20" d="M1025.5,543.2l0.9,0.8h0.1l1.8-0.4c0.1,0,0.1-0.1,0.1-0.1s0,0,0-0.1l-1-0.8h-0.1l-1.7,0.4
	C1025.5,543.1,1025.4,543.1,1025.5,543.2L1025.5,543.2z"/>
<path class="st20" d="M1030.9,540.7l0.8,0.8h0.1l1.8-0.4c0.1,0,0.1-0.1,0.1-0.1s0,0,0-0.1l-0.9-0.8h-0.1l-1.7,0.4
	C1030.9,540.5,1030.8,540.5,1030.9,540.7C1030.8,540.6,1030.9,540.6,1030.9,540.7z"/>
<path class="st20" d="M1028.4,541.2l0.8,0.8h0.1l1.8-0.4c0.1,0,0.1-0.1,0.1-0.1s0,0,0-0.1l-0.9-0.8h-0.1l-1.7,0.4
	C1028.3,541,1028.3,541.1,1028.4,541.2C1028.3,541.2,1028.3,541.2,1028.4,541.2z"/>
<path class="st20" d="M1025.6,541.7l0.8,0.8h0.1l1.8-0.4c0.1,0,0.1-0.1,0.1-0.1s0,0,0-0.1l-0.9-0.8h-0.1l-1.7,0.4
	C1025.6,541.5,1025.6,541.6,1025.6,541.7L1025.6,541.7z"/>
<path class="st20" d="M1022.9,542.3l0.9,0.8h0.1l1.8-0.4c0.1,0,0.1-0.1,0.1-0.1l0,0l-1-0.8h-0.1l-1.7,0.4
	C1022.9,542.1,1022.8,542.2,1022.9,542.3C1022.8,542.3,1022.8,542.3,1022.9,542.3z"/>
<path class="st20" d="M1033.5,540.1l0.8,0.8h0.1l1.8-0.4c0.1,0,0.1-0.1,0.1-0.1s0,0,0-0.1l-0.9-0.8h-0.1l-1.7,0.4
	C1033.5,539.9,1033.4,540,1033.5,540.1L1033.5,540.1z"/>
<path class="st20" d="M1029.1,539.6l0.8,0.8h0.1l1.8-0.4c0.1,0,0.1-0.1,0.1-0.1s0,0,0-0.1l-0.9-0.8h-0.1l-1.7,0.4
	C1029,539.5,1029,539.5,1029.1,539.6C1029,539.6,1029,539.6,1029.1,539.6z"/>
<path class="st20" d="M1038.8,536.1l0.9,0.9c0,0,0,0,0.1,0l2-0.4c0,0,0.1,0,0.1-0.1l0,0l-1-0.9h-0.1L1038.8,536.1
	C1038.8,536,1038.8,536.1,1038.8,536.1L1038.8,536.1z"/>
<path class="st20" d="M1041.2,535.6l0.9,0.9c0,0,0,0,0.1,0l2-0.4c0,0,0.1,0,0.1-0.1l0,0l-1-0.9c0,0,0,0-0.1,0l-1.8,0.4
	C1041.2,535.5,1041.1,535.6,1041.2,535.6C1041.1,535.6,1041.2,535.6,1041.2,535.6z"/>
<path class="st20" d="M1043.6,535.1l0.8,0.8h0.1l1.8-0.5l0.1-0.1l0,0l-0.9-0.7c0,0,0,0-0.1,0l-1.7,0.3
	C1043.6,535,1043.5,535.1,1043.6,535.1L1043.6,535.1z"/>
<path class="st20" d="M1046.1,535.9l0.8,0.8c0,0,0,0,0.1,0l1.8-0.5c0,0,0.1,0,0.1-0.1l0,0l-0.9-0.7c0,0,0,0-0.1,0L1046.1,535.9
	C1046.1,535.8,1046.1,535.9,1046.1,535.9z"/>
<path class="st20" d="M1045.8,537.4l0.8,0.8h0.1l1.8-0.4c0.1,0,0.1-0.1,0.1-0.1s0,0,0-0.1l-0.9-0.7h-0.1l-1.7,0.3
	C1045.8,537.2,1045.8,537.3,1045.8,537.4L1045.8,537.4z"/>
<path class="st20" d="M1043.7,539.3l0.8,0.8h0.1l1.8-0.4c0.1,0,0.1-0.1,0.1-0.1l0,0l-0.9-0.7h-0.1l-1.7,0.3
	C1043.8,539.2,1043.7,539.2,1043.7,539.3L1043.7,539.3z"/>
<path class="st20" d="M1041.3,539.9l0.8,0.8h0.1l1.8-0.4c0.1,0,0.1-0.1,0.1-0.1s0,0,0-0.1l-0.9-0.7h-0.1l-1.7,0.3
	C1041.3,539.7,1041.2,539.8,1041.3,539.9C1041.2,539.9,1041.2,539.9,1041.3,539.9z"/>
<path class="st20" d="M1046.1,538.7l0.8,0.8h0.1l1.8-0.4c0.1,0,0.1-0.1,0.1-0.1l0,0l-0.9-0.7h-0.1l-1.7,0.3
	C1046.1,538.6,1046.1,538.6,1046.1,538.7L1046.1,538.7z"/>
<path class="st20" d="M1045.7,540.4l1.2,1h0.1l1.7-0.4c0.1,0,0.1-0.1,0.1-0.1l0,0l-1.3-1h-0.1L1045.7,540.4
	C1045.7,540.3,1045.6,540.4,1045.7,540.4L1045.7,540.4z"/>
<path class="st20" d="M1041.5,537l0.8,0.8c0,0,0,0,0.1,0l1.8-0.5c0,0,0.1,0,0.1-0.1l0,0l-0.9-0.7c0,0,0,0-0.1,0l-1.7,0.3
	C1041.4,536.9,1041.4,536.9,1041.5,537L1041.5,537z"/>
<path class="st20" d="M1039.1,537.5l0.8,0.8h0.1l1.8-0.4c0.1,0,0.1-0.1,0.1-0.1l0,0l-0.9-0.7h-0.1l-1.7,0.3
	C1039.1,537.3,1039.1,537.4,1039.1,537.5L1039.1,537.5z"/>
<path class="st20" d="M1038.6,539l0.8,0.8h0.1l1.8-0.4c0.1,0,0.1-0.1,0.1-0.1l0,0l-0.9-0.7h-0.1l-1.7,0.3
	C1038.6,538.9,1038.6,538.9,1038.6,539L1038.6,539z"/>
<path class="st20" d="M1036.2,539.5l0.8,0.8h0.1l1.8-0.4c0.1,0,0.1-0.1,0.1-0.1l0,0l-0.9-0.7h-0.1l-1.7,0.3
	C1036.2,539.4,1036.1,539.4,1036.2,539.5C1036.1,539.5,1036.2,539.5,1036.2,539.5z"/>
<path class="st20" d="M1036.6,538l0.8,0.8h0.1l1.8-0.4c0.1,0,0.1-0.1,0.1-0.1l0,0l-0.9-0.7h-0.1l-1.7,0.3
	C1036.6,537.8,1036.6,537.9,1036.6,538L1036.6,538z"/>
<path class="st20" d="M1038.7,540.4l0.8,0.8h0.1l1.8-0.4c0.1,0,0.1-0.1,0.1-0.1s0,0,0-0.1l-0.9-0.7h-0.1l-1.7,0.3
	C1038.7,540.3,1038.6,540.3,1038.7,540.4L1038.7,540.4z"/>
<path class="st20" d="M1036.3,541l0.8,0.8h0.1l1.7-0.4c0.1,0,0.1-0.1,0.1-0.1s0,0,0-0.1l-0.8-0.6h-0.1l-1.6,0.3
	C1036.3,540.8,1036.2,540.9,1036.3,541C1036.2,541,1036.2,541,1036.3,541z"/>
<path class="st20" d="M1043.9,536.4l0.8,0.8c0,0,0,0,0.1,0l1.8-0.5c0,0,0.1,0,0.1-0.1l0,0l-0.9-0.7c0,0,0,0-0.1,0L1043.9,536.4
	C1043.9,536.3,1043.8,536.4,1043.9,536.4L1043.9,536.4z"/>
<path class="st20" d="M1043.5,537.9l0.8,0.8h0.1l1.8-0.4c0.1,0,0.1-0.1,0.1-0.1l0,0l-0.9-0.7h-0.1l-1.7,0.3
	C1043.5,537.8,1043.5,537.8,1043.5,537.9L1043.5,537.9z"/>
<path class="st20" d="M1041.2,538.5l0.8,0.8h0.1l1.8-0.4c0.1,0,0.1-0.1,0.1-0.1l0,0l-0.9-0.7h-0.1l-1.7,0.3
	C1041.2,538.3,1041.1,538.4,1041.2,538.5C1041.1,538.5,1041.1,538.5,1041.2,538.5z"/>
<path class="st20" d="M1031.6,537.6l0.9,0.8h0.1l1.9-0.4c0.1,0,0.1-0.1,0.1-0.1l0,0l-1-0.8h-0.1L1031.6,537.6
	C1031.6,537.5,1031.5,537.5,1031.6,537.6C1031.5,537.6,1031.5,537.6,1031.6,537.6z"/>
<path class="st20" d="M1029.1,538.2l0.8,0.8h0.1l1.8-0.4c0.1,0,0.1-0.1,0.1-0.1s0,0,0-0.1l-0.9-0.8h-0.1l-1.7,0.4
	C1029,538,1029,538.1,1029.1,538.2C1029,538.2,1029,538.2,1029.1,538.2z"/>
<path class="st20" d="M1026.3,540.1l0.6,0.9l0.1,0.1l2.1-0.4c0.1,0,0.1-0.1,0.1-0.1l0,0l-0.7-0.9c0,0-0.1-0.1-0.1,0L1026.3,540.1
	C1026.3,539.9,1026.3,540,1026.3,540.1L1026.3,540.1z"/>
<path class="st20" d="M1012.5,540.4l2.1-0.4h0.1l0.4,0.4c0,0,0,0.1,0,0.2l0,0l-2.2,0.4c-0.1,0-0.1,0-0.1-0.1L1012.5,540.4
	C1012.4,540.5,1012.4,540.5,1012.5,540.4L1012.5,540.4z"/>
<path class="st20" d="M1015.4,539.9l2.1-0.4h0.1l0.4,0.4c0,0,0,0.1,0,0.2l0,0l-2.2,0.5c-0.1,0-0.1,0-0.1-0.1l-0.3-0.5
	C1015.2,540,1015.3,539.9,1015.4,539.9C1015.3,539.9,1015.3,539.9,1015.4,539.9z"/>
<path class="st20" d="M1018.1,539.3l2.1-0.4h0.1l0.4,0.4c0,0,0,0.1,0,0.2l0,0l-2.2,0.5c-0.1,0-0.1,0-0.1-0.1l-0.3-0.5
	C1018,539.4,1018,539.4,1018.1,539.3L1018.1,539.3z"/>
<path class="st20" d="M1020.8,538.8l2.1-0.4h0.1l0.4,0.4c0,0.1,0,0.1,0,0.2l0,0l-2.1,0.5c-0.1,0-0.1,0-0.1-0.1l-0.3-0.5
	C1020.7,538.9,1020.8,538.8,1020.8,538.8L1020.8,538.8z"/>
<path class="st20" d="M1023.6,538.2l2.1-0.4h0.1l0.4,0.4c0,0.1,0,0.1,0,0.2l0,0l-2.1,0.5c-0.1,0-0.1,0-0.1-0.1l-0.3-0.4
	C1023.5,538.3,1023.5,538.3,1023.6,538.2L1023.6,538.2z"/>
<path class="st20" d="M1026.3,537.7l2.1-0.4c0.1,0,0.1,0,0.1,0l0.4,0.4c0,0.1,0,0.1,0,0.2l0,0l-2.1,0.5c-0.1,0-0.1,0-0.1-0.1
	l-0.3-0.4C1026.1,537.8,1026.2,537.8,1026.3,537.7C1026.2,537.7,1026.2,537.7,1026.3,537.7z"/>
<path class="st20" d="M1028.9,537.2l1.9-0.4h0.1l0.4,0.4c0,0,0.1,0.1,0,0.2c0,0,0,0-0.1,0l-1.9,0.4h-0.1l-0.4-0.4
	C1028.7,537.4,1028.8,537.3,1028.9,537.2C1028.8,537.2,1028.8,537.2,1028.9,537.2z"/>
<path class="st20" d="M1031.4,536.7l2-0.4h0.1l0.4,0.4v0.1l0,0l-1.9,0.4h-0.1L1031.4,536.7C1031.3,536.8,1031.3,536.7,1031.4,536.7
	L1031.4,536.7z"/>
<path class="st20" d="M1033.9,536.1l2-0.4h0.1l0.4,0.4v0.1l0,0l-1.9,0.5h-0.1l-0.4-0.4C1033.9,536.3,1033.9,536.2,1033.9,536.1
	C1033.9,536.2,1033.9,536.2,1033.9,536.1z"/>
<path class="st20" d="M1036.5,535.7l2-0.4h0.1l0.4,0.4v0.1l0,0l-1.9,0.4h-0.1L1036.5,535.7C1036.4,535.8,1036.4,535.7,1036.5,535.7
	C1036.4,535.7,1036.4,535.7,1036.5,535.7z"/>
<path class="st20" d="M1038.9,535.2l2-0.5h0.1l0.5,0.4v0.1l0,0l-2,0.5h-0.1L1038.9,535.2C1038.8,535.3,1038.8,535.2,1038.9,535.2
	C1038.8,535.2,1038.8,535.2,1038.9,535.2z"/>
<path class="st20" d="M1041.3,534.7l2-0.4h0.1l0.5,0.4v0.1l0,0l-2,0.5h-0.1l-0.5-0.4C1041.2,534.7,1041.2,534.7,1041.3,534.7
	L1041.3,534.7z"/>
<path class="st20" d="M1043.7,534.2l1.9-0.4h0.1l0.4,0.4v0.1l0,0l-1.8,0.4h-0.1L1043.7,534.2
	C1043.6,534.3,1043.6,534.2,1043.7,534.2C1043.6,534.2,1043.7,534.2,1043.7,534.2z"/>
<path class="st20" d="M1046,533.7l1.9-0.4h0.1l0.4,0.4v0.1l0,0l-1.8,0.4h-0.1L1046,533.7C1045.9,533.8,1045.9,533.8,1046,533.7
	L1046,533.7z"/>
<path class="st20" d="M1014,542.7l0.7,0.9c0,0,0.1,0.1,0.1,0l3.6-0.8c0.1,0,0.1-0.1,0.1-0.1l0,0l-0.8-0.9c0,0-0.1-0.1-0.1,0
	L1014,542.7C1014,542.6,1013.9,542.6,1014,542.7L1014,542.7z"/>
<path class="st20" d="M1015,543.9l0.7,1c0,0,0.1,0.1,0.1,0l4.4-0.9c0.1,0,0.1-0.1,0.1-0.1l0,0l-0.9-1h-0.1L1015,543.9
	C1015.1,543.7,1015,543.8,1015,543.9L1015,543.9z"/>
<path class="st20" d="M1016,545.2l0.8,1.1c0,0,0.1,0.1,0.1,0l5.8-1.3c0.1,0,0.1-0.1,0.1-0.1l0,0l-0.9-1.1h-0.1L1016,545.2
	C1016,545.1,1016,545.2,1016,545.2L1016,545.2z"/>
<path class="st20" d="M1029.3,544l1.1,1.2h0.1l12.7-2.9c0.1,0,0.1-0.1,0.1-0.1s0,0,0-0.1l-1.3-1.2h-0.1l-12.5,2.9
	C1029.3,543.9,1029.2,543.9,1029.3,544L1029.3,544z"/>
<path class="st20" d="M1042.4,541.1l1.2,1.1h0.1l2.6-0.6c0.1,0,0.1-0.1,0.1-0.1l0,0l-1.3-1.1h-0.1L1042.4,541.1
	C1042.4,540.9,1042.4,540.9,1042.4,541.1C1042.4,541,1042.4,541,1042.4,541.1z"/>
<path class="st20" d="M1048.7,540.3l0.6,0.5h0.1l1.9-0.5l0.1-0.1l0,0l-0.7-0.6c0,0,0,0-0.1,0l-1.8,0.5
	C1048.7,540.2,1048.7,540.2,1048.7,540.3L1048.7,540.3L1048.7,540.3z"/>
<path class="st20" d="M1050.4,539.2l0.7,0.6h0.1l1.8-0.6l0.1-0.1l0,0l-0.7-0.5c0,0,0,0-0.1,0L1050.4,539.2
	C1050.4,539,1050.3,539.1,1050.4,539.2C1050.3,539.1,1050.4,539.2,1050.4,539.2z"/>
<path class="st20" d="M1051.7,540.3l-0.5-0.4v-0.1l0,0l1.8-0.6h0.1l0.5,0.5v0.1l0,0L1051.7,540.3L1051.7,540.3z"/>
<path class="st20" d="M1053.5,539.3c0.2,0.1,0.4,0.4,0.5,0.5h0.1l1.8-0.5c0,0,0.1,0,0.1-0.1l0,0l-0.7-0.5h-0.1L1053.5,539.3
	C1053.5,539.2,1053.5,539.2,1053.5,539.3L1053.5,539.3z"/>
<path class="st20" d="M1048.3,538.2l1,0.9c0,0,0,0,0.1,0l4.7-1.1c0,0,0.1,0,0.1-0.1l0,0l-1.2-0.9c0,0,0,0-0.1,0L1048.3,538.2
	C1048.3,538.1,1048.3,538.2,1048.3,538.2L1048.3,538.2z"/>
<path class="st20" d="M1048,536.9l1,0.8c0,0,0,0,0.1,0l3.6-0.8c0,0,0.1,0,0.1-0.1l0,0l-1.2-0.9c0,0,0,0-0.1,0l-3.4,0.8
	C1048,536.8,1048,536.9,1048,536.9L1048,536.9z"/>
<path class="st20" d="M1048.3,535.5l1,0.8c0,0,0,0,0.1,0l1.8-0.4c0,0,0.1,0,0.1-0.1l0,0l-1.1-0.9h-0.1l-1.7,0.5
	C1048.3,535.4,1048.3,535.4,1048.3,535.5L1048.3,535.5z"/>
<path class="st20" d="M1045.8,534.7l0.9,0.8c0,0,0,0,0.1,0l2.9-0.6c0,0,0.1,0,0.1-0.1l0,0l-1.1-0.8c0,0,0,0-0.1,0l-2.7,0.7
	C1045.8,534.6,1045.8,534.6,1045.8,534.7L1045.8,534.7z"/>
<path class="st15" d="M1020.6,493.8c-1.8,1.9-3.5,3.9-5,6c-0.6,0.9-1.3,1.7-2,2.5c-1.1,1-2.4,1.8-3.5,2.8c-1.3,1.2-2.2,2.6-3.1,4.1
	c-0.6,1-1.2,1.9-1.7,2.9c-1.4,3-1.6,6.4-0.7,9.5c0.3,1.1,1,2.4,2.3,2.7c1,0.2,2-0.3,2.9-0.8s1.9-1.1,2.4-1.9
	c0.4-0.7,0.6-1.5,0.7-2.4l1.1-7.2c0.1-0.8,0.3-1.5,0.6-2.3c0.6-1.3,1.9-2.2,3.3-2.9s2.8-1.2,4.1-2c1.2-0.7,2.3-1.7,3.5-2.4
	c1.5-0.9,3.2-1.4,4.6-2.5c1.4-1,2.3-2.9,1.4-4.3c-0.4-0.6-0.9-1-1.5-1.4l-2.7-1.9c-0.6-0.4-1.7-1.7-2.5-1.7
	c-0.7-0.1-1.8,0.9-2.3,1.3C1021.9,492.5,1021.2,493.2,1020.6,493.8z"/>
<path class="st19" d="M1011.6,482.9c0.6,0.1,1.1,0.2,1.7,0.4c0.5,0.2,1,0.5,1.6,0.7c0.7,0.2,1.4,0.3,2.2,0.5
	c0.7,0.1,1.4,0.5,1.8,1.1c-1.2,0.3-2.3,0.9-3,1.8c-0.5,0.7-1,1.5-1.3,2.3c-1,2.4-1.5,5-1.7,7.5c0,0.5,0,1,0.4,1.3
	c-1.8-1.4-4.4-1.3-6.8-1.2c-0.2,0-0.4,0-0.7,0c-0.2-0.1-0.4-0.2-0.6-0.4c-0.7-0.7-1.1-1.6-1.2-2.5c-0.2-1.3,0.1-2.7,0.4-4
	c0.3-1.3,0.5-2.6,0.5-3.9s-0.4-2.4-0.7-3.6c-0.3-1.5,1.6-0.8,2.6-0.6L1011.6,482.9z"/>
<linearGradient id="SVGID_2_" gradientUnits="userSpaceOnUse" x1="40.8" y1="522.2" x2="149.6" y2="522.2" gradientTransform="matrix(1 0 0 -1 0 680)">
	<stop  offset="0.2687" style="stop-color:#A5408F"/>
	<stop  offset="0.7711" style="stop-color:#4B003F"/>
</linearGradient>
<circle class="st25" cx="95.2" cy="157.8" r="54.4"/>
<linearGradient id="SVGID_3_" gradientUnits="userSpaceOnUse" x1="-103" y1="387.4" x2="103" y2="387.4" gradientTransform="matrix(1 0 0 -1 0 680)">
	<stop  offset="0.2687" style="stop-color:#A5408F"/>
	<stop  offset="0.7711" style="stop-color:#4B003F"/>
</linearGradient>
<circle class="st26" cx="0" cy="292.6" r="103"/>
<linearGradient id="SVGID_4_" gradientUnits="userSpaceOnUse" x1="-10.8" y1="620.6" x2="68.6" y2="620.6" gradientTransform="matrix(1 0 0 -1 0 680)">
	<stop  offset="0.2687" style="stop-color:#A5408F"/>
	<stop  offset="0.7711" style="stop-color:#4B003F"/>
</linearGradient>
<circle class="st27" cx="28.9" cy="59.4" r="39.7"/>
<linearGradient id="SVGID_5_" gradientUnits="userSpaceOnUse" x1="-154.5" y1="467.8" x2="291.7" y2="467.8" gradientTransform="matrix(1 0 0 -1 0 680)">
	<stop  offset="0.2687" style="stop-color:#A5408F"/>
	<stop  offset="0.7711" style="stop-color:#4B003F"/>
</linearGradient>
<circle class="st28" cx="68.6" cy="212.2" r="223.1"/>
<linearGradient id="SVGID_6_" gradientUnits="userSpaceOnUse" x1="451.2" y1="-134.9" x2="897.4" y2="-134.9" gradientTransform="matrix(1 0 0 -1 0 680)">
	<stop  offset="0.2687" style="stop-color:#A5408F"/>
	<stop  offset="0.7711" style="stop-color:#4B003F"/>
</linearGradient>
<circle class="st29" cx="674.3" cy="814.9" r="223.1"/>
</svg>
