<?xml version="1.0" encoding="utf-8"?>
<!-- Generator: Adobe Illustrator 20.0.0, SVG Export Plug-In . SVG Version: 6.00 Build 0)  -->
<svg version="1.1" id="Layer_1" xmlns="http://www.w3.org/2000/svg" xmlns:xlink="http://www.w3.org/1999/xlink" x="0px" y="0px"
	 viewBox="0 0 100 100" style="enable-background:new 0 0 100 100;" xml:space="preserve">
<style type="text/css">
	.st0{stroke:#000000;stroke-miterlimit:10;}
	.st1{fill:#FFFFFF;}
</style>
<g>
	<g>
		<ellipse class="st0" cx="51.5" cy="49.7" rx="45" ry="48.2"/>
		<g>
			<path d="M95.1,49.7c-0.3,19.7-11.8,37.5-29.2,44C49,99.9,29.7,94.3,18.1,79.5c-11.7-15-13.3-37-4-53.7C23.5,9,42.2,0.2,60,4.1
				C80.2,8.4,94.7,27.5,95.1,49.7c0,2,3,2,3,0C97.8,29,85.8,10.4,67.9,3.1c-18.3-7.4-39.7-1.4-52.4,15c-12.2,15.9-14,39.2-4,57.1
				s29.7,27.2,48.6,23.4C81.9,94.3,97.7,73.5,98,49.7C98.1,47.6,95.1,47.6,95.1,49.7z"/>
		</g>
	</g>
	<polyline class="st0" points="11.9,69.5 0,98.4 28.9,89.2 	"/>
	<g>
		<path d="M36.4,26.1c0,0-6.3,3.4-7.9,8.2s2.2,16.4,2.2,16.4S54.4,75,61,74.4c6.6-0.6,10-3.7,10-3.7l2.9-3l1.9-5.3l-1.7-1.6L64,51.4
			c0,0-2.8,1.3-3.6,3.9c-0.1,0.3,0,1,0.1,1.7c0.3,1.5,0.8,3.2,0.8,3.4c0.3,2.4-5.6-2.5-5.6-2.5L41.5,45.7c0.2-4.3,2.7-3.2,2.7-3.2
			l2.3-4L36.4,26.1z"/>
		<g>
			<path class="st1" d="M34.7,22.9c-3.9,2.2-8.1,5.8-9.5,10.5c-1.6,5.1,0.1,11.2,1.5,16.2c1.8,6.5,8.5,10.9,13.1,15
				c5.8,5.2,14,14.2,22.2,13.7c4.2-0.2,8.7-2,11.9-5.1c3-2.8,3.9-5.8,5.2-9.7c0.4-1.2,0-2.9-0.9-3.7c-4-3.7-7.9-7.2-11.8-10.9
				c-1.3-1.2-2.7-1.4-4.2-0.5c-1.9,1-3.6,2.7-4.6,4.6c-1.4,3.1,0.4,5.1,0.1,8.1c0.6-1.1,1.2-2.2,1.7-3.2c1.2-0.9,1.7,0.4,0.9-0.8
				c-0.2-0.3-1.3-0.9-1.7-1.2c-0.7-0.4-1.4-1.1-0.6-0.4c-1.5-1.2-2.9-2.5-4.3-3.8c-3.2-2.8-6.4-5.6-9.5-8.4c0.3,1.2,0.6,2.5,0.9,3.7
				c0.4-3-0.6-0.2-1.6-0.5c1.5,0.5,3.2-0.3,4-1.7c0.8-1.3,1.6-2.7,2.3-4c0.9-1.5,0.5-3.3-0.5-4.5C45.8,32,42.4,27.8,39,23.7
				c-3-3.7-7.8,1.7-4.9,5.3c3.4,4.1,6.8,8.3,10.1,12.4c-0.2-1.5-0.4-3-0.5-4.5c-0.8,1.3-1.6,2.7-2.3,4c1.3-0.5,2.6-1.2,4-1.7
				c-4.8-1.7-9.1,5.4-6.1,9.6c2.7,3.6,7.3,6.4,10.6,9.3c2.6,2.3,5.3,5.1,8.3,6.5c2.3,1,5,1.1,6.2-1.7c1.2-2.9-2-6,1.3-7.7
				c-1.4-0.2-2.8-0.4-4.2-0.5c4,3.7,7.9,7.2,11.8,10.9c-0.3-1.2-0.6-2.5-0.9-3.7c-0.5,1.5-1,3-1.6,4.5c-0.7,1.8,1.4-1.5,0-0.2
				c-0.6,0.5-1.1,1.3-1.7,1.8c-0.9,1,0.5-0.2-0.2,0.3c-0.4,0.3-0.9,0.6-1.4,0.9c-1.9,1-4.9,2.4-7,2c-2.6-0.3-5.3-2.8-7.3-4.3
				c-3.3-2.5-6.5-5.2-9.5-8c-2.6-2.4-5.2-4.8-7.7-7.3c-0.7-0.6-1.5-1.8-2.4-2.4c-1.5-0.9,0.6-0.6,0.1,0.8c0.3-0.8-0.9-3.2-1.1-4
				c-0.6-2.3-1.2-4.8-1.3-7.2c0-4.4,3.3-7,6.7-8.9C42.1,27.1,38.6,20.6,34.7,22.9z"/>
		</g>
	</g>
	<path d="M80.2,40.2"/>
</g>
</svg>
